<svg xmlns="http://www.w3.org/2000/svg" viewBox="0 0 21.29 23.24"><defs><style>.cls-1{fill:#e9705c;}</style></defs><title>youtube</title><g id="Layer_2" data-name="Layer 2"><g id="Layer_1-2" data-name="Layer 1"><path class="cls-1" d="M5.39,8.82H6.85V5.16L8.54,0H7.06l-.9,3.52H6.07L5.13,0H3.66L5.39,5.32ZM8.47,7.17A1.73,1.73,0,0,0,9,8.49,1.86,1.86,0,0,0,10.34,9a1.9,1.9,0,0,0,1.38-.47,1.72,1.72,0,0,0,.51-1.31V3.84a1.57,1.57,0,0,0-.52-1.22,1.88,1.88,0,0,0-1.31-.47A2,2,0,0,0,9,2.6a1.51,1.51,0,0,0-.53,1.2ZM9.8,3.75A.42.42,0,0,1,10,3.41a.56.56,0,0,1,.39-.13.59.59,0,0,1,.41.13.4.4,0,0,1,.16.34V7.29a.54.54,0,0,1-.16.42.56.56,0,0,1-.41.15.51.51,0,0,1-.4-.15.61.61,0,0,1-.14-.42Zm4.42,5.16a1.69,1.69,0,0,0,.76-.2,3.11,3.11,0,0,0,.74-.61v.72H17V2.31H15.72V7.25a1.86,1.86,0,0,1-.4.35.79.79,0,0,1-.36.14.37.37,0,0,1-.27-.1.61.61,0,0,1-.08-.34v-5H13.32V7.75a1.39,1.39,0,0,0,.23.87A.81.81,0,0,0,14.22,8.91Zm-1.33,6.35a.66.66,0,0,0-.27.06.94.94,0,0,0-.27.2v4.05a1.18,1.18,0,0,0,.31.23.64.64,0,0,0,.31.07.44.44,0,0,0,.35-.14.74.74,0,0,0,.11-.45V15.93a.84.84,0,0,0-.14-.51A.48.48,0,0,0,12.89,15.26Zm4.75,0a.53.53,0,0,0-.44.17,1,1,0,0,0-.14.59v.66H18.2V16a1,1,0,0,0-.13-.59A.52.52,0,0,0,17.64,15.28Zm3.51-2.49A3,3,0,0,0,18.08,10c-2.43-.1-4.9-.14-7.43-.14s-5,0-7.43.14A3,3,0,0,0,.14,12.79C0,14,0,15.28,0,16.53S0,19,.14,20.26A3,3,0,0,0,3.22,23.1c2.42.1,4.9.14,7.43.14s5,0,7.43-.14a3,3,0,0,0,3.07-2.84c.1-1.24.15-2.49.14-3.73S21.25,14,21.15,12.79Zm-16.54,8H3.15V13.27H1.65V12H6.12v1.28H4.61Zm5.18,0H8.49v-.72a2.51,2.51,0,0,1-.74.6A1.58,1.58,0,0,1,7,20.9a.77.77,0,0,1-.67-.29,1.33,1.33,0,0,1-.23-.87V14.3H7.39v5a.55.55,0,0,0,.08.33.32.32,0,0,0,.26.11.72.72,0,0,0,.36-.14,1.65,1.65,0,0,0,.4-.35V14.3h1.3Zm5-1.35a1.58,1.58,0,0,1-.31,1.06,1,1,0,0,1-.87.37,1.62,1.62,0,0,1-.68-.14,1.72,1.72,0,0,1-.55-.44v.5H11V12h1.31v2.84a1.88,1.88,0,0,1,.55-.45,1.23,1.23,0,0,1,.6-.16,1.12,1.12,0,0,1,.94.42,2,2,0,0,1,.32,1.21Zm4.77-1.75H17.06v1.23a1.48,1.48,0,0,0,.13.71.49.49,0,0,0,.44.2.55.55,0,0,0,.45-.17,1.46,1.46,0,0,0,.12-.74v-.46h1.33V19a2.12,2.12,0,0,1-.48,1.51,1.91,1.91,0,0,1-1.45.5,1.76,1.76,0,0,1-1.37-.53,2.1,2.1,0,0,1-.5-1.48V16.05a1.88,1.88,0,0,1,.55-1.38,2,2,0,0,1,1.42-.53,1.8,1.8,0,0,1,1.36.49,2,2,0,0,1,.47,1.42Z"/></g></g></svg>