<svg xmlns="http://www.w3.org/2000/svg" viewBox="0 0 284.41 258.06"><defs><style>.cls-1{fill:none;stroke:#ffdda5;stroke-miterlimit:10;}.cls-2{fill:#fa6754;}.cls-3{fill:#ffdeac;}</style></defs><title>intro</title><g id="Layer_2" data-name="Layer 2"><g id="Layer_1-2" data-name="Layer 1"><line class="cls-1" x1="30.25" y1="178.51" x2="252.55" y2="178.51"/><line class="cls-1" x1="30.25" y1="123.72" x2="252.55" y2="123.72"/><path class="cls-2" d="M140.75,70.41c-2.5-3.26-3.65-4.61-3.65-10.75l.19-12.29h1.92l.38,13.44h1.35l.19-13.44h2.11l.2,13.44H145l.19-13.44h1.93l.19,12.29c0,6.14-1.16,7.49-3.65,10.75h0l.72,18.94h12.12c0-6.08,0-11.32,0-15.88,0-6.75-.13-12-.34-16.19-.5-10.87-1.74-14.78-4.73-20C146.46,28.75,144.64,0,144.64,0h-4.91S137.92,28.75,133,37.31c-3,5.19-4.24,9.1-4.74,20-.21,4.2-.29,9.44-.34,16.19,0,4.56,0,9.8,0,15.88H140Z"/><path class="cls-2" d="M164.41,233.83h-.79a17,17,0,0,0,.21-2.46,6.66,6.66,0,0,0-.56-2.86,4.82,4.82,0,0,0-1.94-2.08,5.49,5.49,0,0,0-2.79-.74,8.13,8.13,0,0,0-5.77,2.82,21.12,21.12,0,0,0-4.52,7.07,21.74,21.74,0,0,0-1.73,8.25,8.64,8.64,0,0,0,1.36,5.28,4.5,4.5,0,0,0,3.79,1.79,8.77,8.77,0,0,0,3.35-.74,9.1,9.1,0,0,0,3.06-2.07,10,10,0,0,0,1.61-2.18,35.09,35.09,0,0,0,1.63-3.52h.79q-1.63,6-2.13,8.65h-.79a9.8,9.8,0,0,0,.11-1.23c0-.61-.15-.91-.43-.91a1.5,1.5,0,0,0-.75.31q-1.29.82-2.16,1.29a9.8,9.8,0,0,1-2,.75,10.42,10.42,0,0,1-2.64.3,8.46,8.46,0,0,1-6.2-2.16c-1.46-1.44-2.2-3.55-2.2-6.31a18.7,18.7,0,0,1,2.08-8.36,19.19,19.19,0,0,1,5.68-6.94,12.84,12.84,0,0,1,7.94-2.74,8.06,8.06,0,0,1,2.44.32,5.12,5.12,0,0,1,1.59.78,11.08,11.08,0,0,1,1.35,1.24.87.87,0,0,0,.54.32c.43,0,.9-.72,1.43-2.15h.75A59,59,0,0,0,164.41,233.83Z"/><path class="cls-2" d="M151.32,251.8a7.85,7.85,0,0,1-8.66-8.72,19.18,19.18,0,0,1,2.1-8.47,19.51,19.51,0,0,1,5.76-7,13.17,13.17,0,0,1,8.09-2.79,8.33,8.33,0,0,1,2.52.33,5.78,5.78,0,0,1,1.67.82,12.46,12.46,0,0,1,1.37,1.27c.22.22.33.24.36.24s.5-.1,1.19-2l.06-.17h1.3l-.13.34a57.11,57.11,0,0,0-2.29,8.24l0,.2h-1.28l0-.29a16.38,16.38,0,0,0,.21-2.42,6.38,6.38,0,0,0-.54-2.76,4.64,4.64,0,0,0-1.84-2,5.22,5.22,0,0,0-2.66-.71,8,8,0,0,0-5.6,2.74,21.31,21.31,0,0,0-4.46,7,21.69,21.69,0,0,0-1.71,8.16,8.45,8.45,0,0,0,1.31,5.13,4.21,4.21,0,0,0,3.59,1.69,8.45,8.45,0,0,0,3.25-.72,8.89,8.89,0,0,0,3-2,9.72,9.72,0,0,0,1.57-2.12,35.43,35.43,0,0,0,1.62-3.49l.06-.16h1.29l-.09.32c-1.08,4-1.8,6.86-2.12,8.63l0,.2H158.9l0-.28a9.57,9.57,0,0,0,.11-1.2c0-.46-.09-.66-.18-.66a1.2,1.2,0,0,0-.61.27c-.86.55-1.6,1-2.18,1.3a9.72,9.72,0,0,1-2.06.77A10.49,10.49,0,0,1,151.32,251.8Zm7.29-26.51a12.72,12.72,0,0,0-7.79,2.69,19.08,19.08,0,0,0-5.61,6.85,18.61,18.61,0,0,0-2.05,8.25,7.38,7.38,0,0,0,8.16,8.22,10.39,10.39,0,0,0,2.57-.29,8.8,8.8,0,0,0,2-.74c.57-.3,1.29-.72,2.13-1.27a1.69,1.69,0,0,1,.89-.35c.31,0,.68.2.68,1.16a8.29,8.29,0,0,1-.08,1h.3c.34-1.74,1-4.48,2-8.15h-.3a33.27,33.27,0,0,1-1.57,3.39,10.24,10.24,0,0,1-1.65,2.23,9.29,9.29,0,0,1-3.15,2.13,9,9,0,0,1-3.44.76,4.75,4.75,0,0,1-4-1.89,8.9,8.9,0,0,1-1.41-5.43,22.22,22.22,0,0,1,1.75-8.34,21.65,21.65,0,0,1,4.57-7.16,8.42,8.42,0,0,1,5.95-2.89,5.73,5.73,0,0,1,2.91.77,5.11,5.11,0,0,1,2,2.18,6.91,6.91,0,0,1,.59,3,17.16,17.16,0,0,1-.17,2.21h.3a58.39,58.39,0,0,1,2.14-7.78h-.22c-.56,1.48-1.06,2.15-1.6,2.15a1.08,1.08,0,0,1-.72-.39,11.49,11.49,0,0,0-1.32-1.22,5.06,5.06,0,0,0-1.51-.74A7.65,7.65,0,0,0,158.61,225.29Z"/><path class="cls-2" d="M173.67,236a10,10,0,0,1,2.37-3,4.16,4.16,0,0,1,2.63-.94,2.1,2.1,0,0,1,1.55.57,2,2,0,0,1,.57,1.47,2.46,2.46,0,0,1-.35,1.3,2.65,2.65,0,0,1-.93,1,2.41,2.41,0,0,1-1.25.35,1.52,1.52,0,0,1-1-.34,1.21,1.21,0,0,1-.39-1,2.35,2.35,0,0,1,1.62-2.3.54.54,0,0,0-.41-.14c-.85,0-1.77.63-2.74,1.89a26.08,26.08,0,0,0-2.94,5.31,73,73,0,0,0-2.81,7.89l-.75,3h-3.13l4.3-15.45a5.27,5.27,0,0,0,.27-1.41c0-.55-.26-.82-.76-.82a1.86,1.86,0,0,0-1.47.85,10.62,10.62,0,0,0-1.34,2.82l-.48,1.34h-.68l.91-2.62c.85-2.47,2.29-3.71,4.34-3.71a1.84,1.84,0,0,1,2.08,2.09,6.44,6.44,0,0,1-.12,1.21c-.09.43-.22,1-.39,1.73l-1.16,4.57A42.08,42.08,0,0,1,173.67,236Z"/><path class="cls-2" d="M169,251.29h-3.65l4.39-15.77a5.11,5.11,0,0,0,.26-1.34c0-.47-.21-.57-.51-.57a1.6,1.6,0,0,0-1.27.75,10.54,10.54,0,0,0-1.31,2.75l-.53,1.51h-1.21l1-3c.87-2.57,2.41-3.87,4.57-3.87a2.09,2.09,0,0,1,2.33,2.34,6.2,6.2,0,0,1-.13,1.26c-.08.43-.21,1-.39,1.73l-.26,1c.38-.86.76-1.63,1.13-2.28a10.25,10.25,0,0,1,2.44-3.11,4.4,4.4,0,0,1,2.78-1,2.38,2.38,0,0,1,1.73.64,2.23,2.23,0,0,1,.64,1.65,2.86,2.86,0,0,1-.38,1.43,3,3,0,0,1-1,1,2.29,2.29,0,0,1-2.57,0,1.46,1.46,0,0,1-.48-1.15,2.5,2.5,0,0,1,1.06-2.14,4.45,4.45,0,0,0-2.14,1.75,25,25,0,0,0-2.91,5.25,71.88,71.88,0,0,0-2.8,7.87Zm-3-.5h2.6l.71-2.82a72.24,72.24,0,0,1,2.82-7.93,26.09,26.09,0,0,1,3-5.36c1-1.34,2-2,2.94-2a.78.78,0,0,1,.58.22l.26.26-.34.15a2.1,2.1,0,0,0-1.46,2.07,1,1,0,0,0,.31.77,1.78,1.78,0,0,0,2,0,2.5,2.5,0,0,0,.85-.86,2.28,2.28,0,0,0,.31-1.17,1.73,1.73,0,0,0-.49-1.29,1.84,1.84,0,0,0-1.38-.5,4,4,0,0,0-2.48.89,9.78,9.78,0,0,0-2.31,2.95,42.09,42.09,0,0,0-2.47,5.59l-.47-.15L172.1,237c.17-.71.3-1.29.38-1.7a6.12,6.12,0,0,0,.12-1.17,1.6,1.6,0,0,0-1.83-1.84c-2,0-3.29,1.16-4.1,3.54l-.8,2.29H166l.41-1.17a10.48,10.48,0,0,1,1.39-2.89,2.08,2.08,0,0,1,1.66-.95,1,1,0,0,1,1,1.07,5.38,5.38,0,0,1-.28,1.48Z"/><path class="cls-2" d="M188.86,249.08a9.6,9.6,0,0,1-2.52,1.78,6.37,6.37,0,0,1-2.86.69,4.62,4.62,0,0,1-3.49-1.31,5.26,5.26,0,0,1-1.25-3.77,14.78,14.78,0,0,1,1.6-6.16,17.58,17.58,0,0,1,4.33-5.85A8.75,8.75,0,0,1,190.6,232a3,3,0,0,1,1.92.61,2.15,2.15,0,0,1,.75,1.76q0,2.93-3.25,5.08a32.63,32.63,0,0,1-7.5,3.61,15.72,15.72,0,0,0-.41,3.48c0,2.3.83,3.46,2.48,3.46q3.07,0,5.55-3.6l.58.28A11.1,11.1,0,0,1,188.86,249.08Zm-1.63-15a14.83,14.83,0,0,0-2.67,3.58,20.92,20.92,0,0,0-1.89,4.76,18.34,18.34,0,0,0,4.91-2.32,7.17,7.17,0,0,0,2.81-5.75,4,4,0,0,0-.14-1.29.46.46,0,0,0-.44-.33A4,4,0,0,0,187.23,234.07Z"/><path class="cls-2" d="M183.48,251.8a4.88,4.88,0,0,1-3.67-1.39,5.47,5.47,0,0,1-1.32-3.94,15.17,15.17,0,0,1,1.62-6.27,18,18,0,0,1,4.39-5.93,9.06,9.06,0,0,1,6.1-2.48,3.19,3.19,0,0,1,2.08.67,2.38,2.38,0,0,1,.84,1.95c0,2-1.13,3.81-3.36,5.29a32.66,32.66,0,0,1-7.43,3.59,15.8,15.8,0,0,0-.37,3.29c0,2.16.73,3.21,2.23,3.21,1.95,0,3.75-1.18,5.35-3.5l.12-.17,1,.49-.14.23a11.63,11.63,0,0,1-1.9,2.42,10.14,10.14,0,0,1-2.59,1.83A6.72,6.72,0,0,1,183.48,251.8Zm7.12-19.51a8.6,8.6,0,0,0-5.77,2.35,17.72,17.72,0,0,0-4.27,5.77,14.79,14.79,0,0,0-1.57,6.06,5.05,5.05,0,0,0,1.18,3.6,4.39,4.39,0,0,0,3.31,1.23,6.18,6.18,0,0,0,2.75-.66,9.56,9.56,0,0,0,2.46-1.74,11,11,0,0,0,1.68-2.08l-.14-.07c-1.67,2.35-3.56,3.54-5.64,3.54-1.81,0-2.73-1.25-2.73-3.71a16.31,16.31,0,0,1,.41-3.54l0-.14.14,0a31.71,31.71,0,0,0,7.44-3.58c2.09-1.38,3.14-3,3.14-4.87a1.86,1.86,0,0,0-.66-1.56A2.73,2.73,0,0,0,190.6,232.29Zm-8.29,10.51.12-.45a20.56,20.56,0,0,1,1.92-4.82,14.84,14.84,0,0,1,2.7-3.64,4.28,4.28,0,0,1,2.76-1.42.71.71,0,0,1,.67.48,3.91,3.91,0,0,1,.16,1.39,7.38,7.38,0,0,1-2.91,5.95,18.91,18.91,0,0,1-5,2.36Zm7.5-9.83a3.81,3.81,0,0,0-2.41,1.28,14.21,14.21,0,0,0-2.62,3.53A20.35,20.35,0,0,0,183,242a16.88,16.88,0,0,0,4.38-2.12,6.92,6.92,0,0,0,2-2.43,7,7,0,0,0,.71-3.12,3.32,3.32,0,0,0-.12-1.19C190,233,189.88,233,189.81,233Z"/><path class="cls-2" d="M210.06,245.17l-.9,2.64a6.34,6.34,0,0,1-1.84,2.87,3.7,3.7,0,0,1-2.3.87,2.64,2.64,0,0,1-1.19-.25,2,2,0,0,1-.8-.7,2.5,2.5,0,0,1-.3-1.26,5.29,5.29,0,0,1,.12-1.1c.09-.38.17-.75.27-1.09s.15-.57.17-.68l.65-2.62a19.43,19.43,0,0,1-3.5,5.87,5.24,5.24,0,0,1-3.74,1.83,2.94,2.94,0,0,1-2.52-1.19,5.23,5.23,0,0,1-.87-3.17,16.79,16.79,0,0,1,1.55-6.52,19.92,19.92,0,0,1,4-6.12,7.18,7.18,0,0,1,5.05-2.51,2,2,0,0,1,1.58.7,3.36,3.36,0,0,1,.73,2l.56-2.2a11.59,11.59,0,0,0,3.32-.49L205.63,248a6.21,6.21,0,0,0-.26,1.33q0,.9.81.9c1,0,2-1.23,2.76-3.67l.44-1.34Zm-4.25-9.32a4.37,4.37,0,0,0-.52-2.28,1.65,1.65,0,0,0-1.47-.85c-1,0-2.11.8-3.26,2.39a21.57,21.57,0,0,0-2.9,5.89,21,21,0,0,0-1.17,6.61,5.22,5.22,0,0,0,.32,2.14,1,1,0,0,0,.93.64,3.72,3.72,0,0,0,2.4-1.54,19.79,19.79,0,0,0,2.74-4.1,30.3,30.3,0,0,0,2.22-5.49l.67-2.62C205.79,236.27,205.81,236,205.81,235.85Z"/><path class="cls-2" d="M205,251.8a2.86,2.86,0,0,1-1.3-.28,2.15,2.15,0,0,1-.9-.78,2.77,2.77,0,0,1-.34-1.4,5.29,5.29,0,0,1,.13-1.16c.08-.38.17-.75.27-1.1s.15-.56.17-.66l0-.15a15.68,15.68,0,0,1-2.47,3.63,5.51,5.51,0,0,1-3.92,1.9,3.16,3.16,0,0,1-2.72-1.29,5.51,5.51,0,0,1-.92-3.32,16.92,16.92,0,0,1,1.58-6.62,20.06,20.06,0,0,1,4.07-6.19,7.43,7.43,0,0,1,5.23-2.59,2.23,2.23,0,0,1,1.76.79,2.9,2.9,0,0,1,.58,1l.33-1.31h.19a11.39,11.39,0,0,0,3.25-.48l.45-.15L205.87,248a5.39,5.39,0,0,0-.25,1.27c0,.57.27.65.56.65.92,0,1.77-1.18,2.52-3.5l.49-1.51h1.22l-1,3a6.68,6.68,0,0,1-1.93,3A3.94,3.94,0,0,1,205,251.8Zm-1.31-8.05.48.16-.65,2.62c0,.1-.09.33-.18.68s-.18.7-.26,1.08a4.83,4.83,0,0,0-.12,1.05,2.26,2.26,0,0,0,.27,1.14,1.68,1.68,0,0,0,.69.59,2.45,2.45,0,0,0,1.08.23,3.41,3.41,0,0,0,2.14-.82,6.08,6.08,0,0,0,1.77-2.76l.78-2.3h-.15l-.39,1.16c-.83,2.59-1.81,3.85-3,3.85-.69,0-1.06-.41-1.06-1.15a6.19,6.19,0,0,1,.27-1.4l4.38-15.47a12.6,12.6,0,0,1-2.77.36l-.88,3.46-.12-1.48a3.09,3.09,0,0,0-.67-1.84,1.75,1.75,0,0,0-1.39-.62,7,7,0,0,0-4.87,2.44,19.59,19.59,0,0,0-4,6,16.64,16.64,0,0,0-1.53,6.42,5.11,5.11,0,0,0,.82,3,2.67,2.67,0,0,0,2.32,1.08,5,5,0,0,0,3.56-1.75A19.31,19.31,0,0,0,203.71,243.75Zm-6,6.89a1.26,1.26,0,0,1-1.16-.78,5.38,5.38,0,0,1-.34-2.25,21.47,21.47,0,0,1,1.18-6.69,21.94,21.94,0,0,1,2.94-6c1.21-1.67,2.35-2.49,3.46-2.49a1.88,1.88,0,0,1,1.68,1,4.57,4.57,0,0,1,.56,2.41c0,.16,0,.43,0,.81l-.67,2.67a31.22,31.22,0,0,1-2.25,5.53,20,20,0,0,1-2.78,4.16C199.33,250.11,198.49,250.64,197.74,250.64ZM203.82,233c-.93,0-2,.77-3.06,2.28a21.27,21.27,0,0,0-2.86,5.83,20.81,20.81,0,0,0-1.16,6.53,5.07,5.07,0,0,0,.29,2,.77.77,0,0,0,.71.5c.59,0,1.33-.49,2.21-1.46a18.93,18.93,0,0,0,2.71-4.05,30.79,30.79,0,0,0,2.2-5.44l.67-2.61c0-.32,0-.58,0-.73a4.2,4.2,0,0,0-.48-2.15A1.39,1.39,0,0,0,203.82,233Z"/><path class="cls-2" d="M237.71,245.2l-.47,1.34a10.13,10.13,0,0,1-1.37,2.86,1.88,1.88,0,0,1-1.41.81.75.75,0,0,1-.84-.86,4.66,4.66,0,0,1,.26-1.37l3.5-10.51a8.76,8.76,0,0,0,.51-2.74,3,3,0,0,0-.6-2,2.34,2.34,0,0,0-1.93-.73,5.09,5.09,0,0,0-3.07,1,11,11,0,0,0-2.71,3.22,44.11,44.11,0,0,0-2.84,6l1.29-4.76a11.85,11.85,0,0,0,.47-2.9c0-1.69-.79-2.53-2.36-2.53a5,5,0,0,0-2.9.92,10.18,10.18,0,0,0-2.67,3,36.83,36.83,0,0,0-2.76,5.62l1.15-4.53a10.8,10.8,0,0,0,.52-2.87c0-1.44-.69-2.16-2.09-2.16q-3.07,0-4.34,3.71l-.92,2.62h.69l.47-1.34a10.58,10.58,0,0,1,1.35-2.82,1.86,1.86,0,0,1,1.47-.85c.5,0,.75.3.75.91a5.08,5.08,0,0,1-.26,1.32L212.29,251h3.13l.58-2.32a58.17,58.17,0,0,1,2.81-7.87,26.92,26.92,0,0,1,3.21-5.61c1.09-1.37,2.07-2.06,2.95-2.06.66,0,1,.39,1,1.18a6.17,6.17,0,0,1-.37,1.84L221.1,251h3.25l.25-.9,0,.18a89.81,89.81,0,0,1,3.25-8.91,30.36,30.36,0,0,1,3.34-6c1.09-1.45,2.1-2.18,3-2.18.53,0,.79.38.79,1.13a6.51,6.51,0,0,1-.37,1.89l-3.41,10.31a10,10,0,0,0-.6,2.83,2.29,2.29,0,0,0,.3,1.23,2.46,2.46,0,0,0,2.23,1q3.1,0,4.36-3.71l.9-2.64Z"/><path class="cls-2" d="M233.12,251.8a2.69,2.69,0,0,1-2.44-1.1,2.59,2.59,0,0,1-.34-1.36,10.21,10.21,0,0,1,.61-2.91l3.41-10.3a6.45,6.45,0,0,0,.36-1.82c0-.88-.38-.88-.54-.88-.84,0-1.79.7-2.83,2.08a30.66,30.66,0,0,0-3.31,6,90.12,90.12,0,0,0-3.24,8.88h0l-.25.9h-3.78l4.6-15.16a6.11,6.11,0,0,0,.36-1.77c0-.82-.38-.93-.75-.93-.8,0-1.72.66-2.75,2A26.53,26.53,0,0,0,219,241a57.11,57.11,0,0,0-2.79,7.83l-.62,2.5H212l4.4-15.77a4.93,4.93,0,0,0,.25-1.25c0-.58-.24-.66-.5-.66a1.6,1.6,0,0,0-1.27.75,10.54,10.54,0,0,0-1.31,2.75l-.53,1.51h-1.22l1-3c.88-2.57,2.42-3.87,4.58-3.87a2.12,2.12,0,0,1,2.34,2.41,11.32,11.32,0,0,1-.53,2.94l-.41,1.62a29.18,29.18,0,0,1,1.57-2.92,10.45,10.45,0,0,1,2.73-3.08,5.28,5.28,0,0,1,3-1c1.71,0,2.61,1,2.61,2.78a11.94,11.94,0,0,1-.48,3l-.39,1.43a30,30,0,0,1,1.49-2.83,11,11,0,0,1,2.77-3.29,5.29,5.29,0,0,1,3.22-1.06,2.57,2.57,0,0,1,2.12.82,3.22,3.22,0,0,1,.66,2.12,9,9,0,0,1-.53,2.82l-3.49,10.51a4.47,4.47,0,0,0-.25,1.29c0,.44.17.61.59.61a1.62,1.62,0,0,0,1.21-.72,9.69,9.69,0,0,0,1.33-2.78l.53-1.51h1.2l-1,3C236.84,250.5,235.29,251.8,233.12,251.8Zm1.06-18.87c.39,0,1,.18,1,1.38a7.1,7.1,0,0,1-.38,2l-3.41,10.3a9.89,9.89,0,0,0-.59,2.76,2,2,0,0,0,.26,1.09,2.19,2.19,0,0,0,2,.87c2,0,3.31-1.16,4.13-3.54l.78-2.31h-.14l-.42,1.17a10,10,0,0,1-1.41,2.94,2.09,2.09,0,0,1-1.6.9,1,1,0,0,1-1.09-1.11,5.13,5.13,0,0,1,.27-1.44l3.5-10.52a8.56,8.56,0,0,0,.5-2.66,2.8,2.8,0,0,0-.54-1.8,2.13,2.13,0,0,0-1.74-.64,4.82,4.82,0,0,0-2.92,1,10.67,10.67,0,0,0-2.64,3.14,42.64,42.64,0,0,0-2.83,5.94l-.47-.16,1.28-4.76a11.45,11.45,0,0,0,.47-2.84c0-1.56-.67-2.28-2.11-2.28a4.76,4.76,0,0,0-2.76.88,9.9,9.9,0,0,0-2.6,2.94A37.92,37.92,0,0,0,218,241.7l-.47-.16,1.14-4.54a10.38,10.38,0,0,0,.52-2.8c0-1.3-.58-1.91-1.84-1.91-1.95,0-3.29,1.16-4.1,3.54l-.8,2.29h.15l.42-1.17a10.52,10.52,0,0,1,1.38-2.89,2.11,2.11,0,0,1,1.67-.95c.37,0,1,.15,1,1.16a5.6,5.6,0,0,1-.27,1.39l-4.22,15.13h2.61l.53-2.13a57.8,57.8,0,0,1,2.82-7.91,26.61,26.61,0,0,1,3.25-5.67c1.14-1.45,2.17-2.15,3.14-2.15.46,0,1.25.19,1.25,1.43a6.68,6.68,0,0,1-.38,1.92l-4.4,14.51h2.72l.2-.71h0a86.12,86.12,0,0,1,3.22-8.77,29.89,29.89,0,0,1,3.36-6.1C232.1,233.68,233.16,232.93,234.18,232.93Z"/><path class="cls-2" d="M253,243.15a25,25,0,0,0,2-6,7.48,7.48,0,0,1-1.92-1.42,2.67,2.67,0,0,1-.82-1.9,1.76,1.76,0,0,1,.51-1.35,1.85,1.85,0,0,1,1.32-.48c1.25,0,1.88,1,1.88,2.92a15.73,15.73,0,0,1-1,5.18,34.5,34.5,0,0,1-2.65,5.72,41.18,41.18,0,0,1-3.41,5.08,20.76,20.76,0,0,1-7.11,6,7.6,7.6,0,0,1-3.12.9,2.11,2.11,0,0,1-1.3-.39,1.3,1.3,0,0,1-.52-1.09,1.44,1.44,0,0,1,.58-1.18,2.25,2.25,0,0,1,1.38-.44,3.12,3.12,0,0,1,1.45.37,10.14,10.14,0,0,1,1.53,1,20,20,0,0,0,5.4-4.31l-2.65-16.13a5.13,5.13,0,0,0-.45-1.55.8.8,0,0,0-.71-.44c-.31,0-.63.24-1,.7a12.45,12.45,0,0,0-1.18,2.61l-.46,1.33h-.68l.89-2.62q1.28-3.68,4.15-3.67a2.46,2.46,0,0,1,1.27.3,2.1,2.1,0,0,1,.82,1,7.84,7.84,0,0,1,.5,2l1.84,13.54A36.85,36.85,0,0,0,253,243.15Z"/><path class="cls-2" d="M238.63,258.06a2.38,2.38,0,0,1-1.45-.44,1.52,1.52,0,0,1-.62-1.29,1.67,1.67,0,0,1,.68-1.38,3,3,0,0,1,3.1-.09,10.56,10.56,0,0,1,1.44,1,19.77,19.77,0,0,0,5.1-4.09l-2.63-16a4.55,4.55,0,0,0-.42-1.46c-.25-.43-.69-.5-1.24.28a12.54,12.54,0,0,0-1.15,2.54l-.51,1.5h-1.21l1-3c.88-2.55,2.35-3.84,4.38-3.84a2.7,2.7,0,0,1,1.39.33,2.35,2.35,0,0,1,.93,1.14,8,8,0,0,1,.51,2.05l1.76,12.91a36.32,36.32,0,0,0,3-5.18,25.69,25.69,0,0,0,2-5.72,7.6,7.6,0,0,1-1.82-1.38,2.92,2.92,0,0,1-.89-2.07,2,2,0,0,1,.59-1.53,2.06,2.06,0,0,1,1.49-.55c1.41,0,2.13,1.06,2.13,3.17a16.25,16.25,0,0,1-1,5.27,35.75,35.75,0,0,1-2.67,5.75,39.88,39.88,0,0,1-3.44,5.11,21.18,21.18,0,0,1-7.19,6A7.93,7.93,0,0,1,238.63,258.06Zm.14-3.1a1.94,1.94,0,0,0-1.22.39,1.16,1.16,0,0,0-.49,1,1,1,0,0,0,.42.89c.82.61,2.25.38,4.17-.53a20.71,20.71,0,0,0,7-5.91,40,40,0,0,0,3.4-5.05,34.3,34.3,0,0,0,2.62-5.67,15.52,15.52,0,0,0,1-5.1c0-2.67-1.23-2.67-1.63-2.67a1.59,1.59,0,0,0-1.15.41,1.53,1.53,0,0,0-.43,1.17,2.37,2.37,0,0,0,.75,1.72,7.44,7.44,0,0,0,1.86,1.38l.16.08,0,.19a26,26,0,0,1-2,6,36.93,36.93,0,0,1-3.44,5.77l-.36.5-1.93-14.15a7.29,7.29,0,0,0-.48-1.92,1.85,1.85,0,0,0-.72-.91,2.29,2.29,0,0,0-1.14-.26c-1.82,0-3.1,1.14-3.91,3.5l-.78,2.29h.15l.4-1.17a12.62,12.62,0,0,1,1.21-2.66c.38-.54.76-.81,1.16-.81a1,1,0,0,1,.92.56,5.16,5.16,0,0,1,.48,1.63l2.68,16.26-.08.09a20.45,20.45,0,0,1-5.47,4.36l-.14.08-.13-.11a10.08,10.08,0,0,0-1.49-1A2.93,2.93,0,0,0,238.77,255Z"/><path class="cls-3" d="M0,147.29H7.8v1.53h-3V157H3v-8.21H0Z"/><path class="cls-3" d="M15.27,147.1a4.71,4.71,0,0,1,1.79.32,3.71,3.71,0,0,1,1.39,1,5.34,5.34,0,0,1,1.23,3.78A5.49,5.49,0,0,1,18.45,156a4.15,4.15,0,0,1-3.19,1.26A4.06,4.06,0,0,1,12.08,156a6.5,6.5,0,0,1,0-7.61A4.13,4.13,0,0,1,15.27,147.1Zm2.58,5.07a4.15,4.15,0,0,0-.7-2.58,2.25,2.25,0,0,0-1.88-.9,2.28,2.28,0,0,0-1.89.9,4.15,4.15,0,0,0-.7,2.58,4.08,4.08,0,0,0,.7,2.57,2.3,2.3,0,0,0,1.89.89,2.26,2.26,0,0,0,1.88-.89A4.08,4.08,0,0,0,17.85,152.17Z"/><path class="cls-3" d="M30,148.09a3.3,3.3,0,0,1,0,4.59,3.75,3.75,0,0,1-2.57.81H25.77V157H24v-9.74h3.43A3.8,3.8,0,0,1,30,148.09Zm-2.57,3.85a1.66,1.66,0,0,0,1.25-.43,1.56,1.56,0,0,0,.42-1.12,1.58,1.58,0,0,0-.42-1.13,1.67,1.67,0,0,0-1.25-.44H25.77v3.12Z"/><path class="cls-3" d="M71.93,150.28a2.75,2.75,0,0,1-.58,1.77,3,3,0,0,1-1.68,1l2.61,4H70l-2.15-3.8H66.47V157H64.7v-9.74h3.6a4,4,0,0,1,2.69.83A2.67,2.67,0,0,1,71.93,150.28Zm-3.79,1.77a2.12,2.12,0,0,0,1.47-.45,1.48,1.48,0,0,0,.49-1.17,1.58,1.58,0,0,0-.45-1.17,1.87,1.87,0,0,0-1.35-.44H66.47v3.23Z"/><path class="cls-3" d="M76.6,147.29h6.27v1.53h-4.5v2.57h4.21v1.53H78.37v2.56h4.5V157H76.6Z"/><path class="cls-3" d="M90.8,147.29a5,5,0,0,1,3.59,1.32,5.26,5.26,0,0,1,0,7.1A5,5,0,0,1,90.8,157H87.64v-9.74Zm-1.38,8.13H90.8a2.9,2.9,0,0,0,2.24-.93,3.33,3.33,0,0,0,.81-2.32,3.4,3.4,0,0,0-.81-2.36,2.9,2.9,0,0,0-2.24-.91H89.42Z"/><path class="cls-3" d="M106,147.29l2.14,7.4,2.09-6.75h1.2l2.2,6.78,2.28-7.43h2L114.59,157h-1.86l-1.83-5.49L109.09,157h-1.86l-3.18-9.74Z"/><path class="cls-3" d="M121.88,147.29h1.77V157h-1.77Z"/><path class="cls-3" d="M130.6,147.29l4.29,6.9v-6.9h1.77V157h-1.8l-4.43-7.14V157h-1.77v-9.74Z"/><path class="cls-3" d="M141.68,147.29H148v1.53h-4.5v2.57h4.22v1.53h-4.22v2.56H148V157h-6.27Z"/><path class="cls-3" d="M157.85,150c-.16-.85-.76-1.28-1.8-1.28a2,2,0,0,0-1.19.31.88.88,0,0,0-.43.74.84.84,0,0,0,.28.68,2.51,2.51,0,0,0,.86.46l2.12.83a4.39,4.39,0,0,1,1.66,1.05,2.29,2.29,0,0,1,.59,1.6,2.5,2.5,0,0,1-1,2.09,4.47,4.47,0,0,1-2.82.78,4.12,4.12,0,0,1-2.63-.8,3.08,3.08,0,0,1-1.18-2.46h1.75a1.46,1.46,0,0,0,1.25,1.52,3.82,3.82,0,0,0,1,.1,2.17,2.17,0,0,0,1.14-.31.92.92,0,0,0,.52-.82,1.07,1.07,0,0,0-.28-.8,2.79,2.79,0,0,0-.93-.51l-1.94-.77a5,5,0,0,1-1.72-1,2.16,2.16,0,0,1-.6-1.62,2.26,2.26,0,0,1,.94-1.92,4.18,4.18,0,0,1,2.6-.73,3.85,3.85,0,0,1,2.54.75,3.1,3.1,0,0,1,1,2.13Z"/><path class="cls-3" d="M168.2,147.29H176v1.53h-3V157h-1.77v-8.21h-3Z"/><path class="cls-3" d="M183.47,147.1a4.71,4.71,0,0,1,1.79.32,3.71,3.71,0,0,1,1.39,1,5.34,5.34,0,0,1,1.23,3.78,5.49,5.49,0,0,1-1.23,3.83,4.14,4.14,0,0,1-3.19,1.26,4.08,4.08,0,0,1-3.18-1.29,6.5,6.5,0,0,1,0-7.61A4.13,4.13,0,0,1,183.47,147.1Zm2.58,5.07a4.21,4.21,0,0,0-.69-2.58,2.43,2.43,0,0,0-3.78,0,4.15,4.15,0,0,0-.7,2.58,4.08,4.08,0,0,0,.7,2.57,2.45,2.45,0,0,0,3.78,0A4.14,4.14,0,0,0,186.05,152.17Z"/><path class="cls-3" d="M203.15,148.09a3.32,3.32,0,0,1,0,4.59,3.8,3.8,0,0,1-2.58.81h-1.65V157h-1.78v-9.74h3.43A3.85,3.85,0,0,1,203.15,148.09Zm-2.58,3.85a1.66,1.66,0,0,0,1.25-.43,1.56,1.56,0,0,0,.42-1.12,1.58,1.58,0,0,0-.42-1.13,1.67,1.67,0,0,0-1.25-.44h-1.65v3.12Z"/><path class="cls-3" d="M209.78,147.29H212l3.2,9.74h-1.88l-.67-2.1H209l-.69,2.1h-1.87Zm-.3,6.3h2.73l-1.35-4.18Z"/><path class="cls-3" d="M219.17,147.29h1.77V157h-1.77Z"/><path class="cls-3" d="M233.21,150.28a2.75,2.75,0,0,1-.58,1.77,3,3,0,0,1-1.68,1l2.61,4h-2.31l-2.15-3.8h-1.35V157H226v-9.74h3.6a4,4,0,0,1,2.69.83A2.67,2.67,0,0,1,233.21,150.28Zm-3.79,1.77a2.12,2.12,0,0,0,1.47-.45,1.48,1.48,0,0,0,.49-1.17,1.58,1.58,0,0,0-.45-1.17,1.87,1.87,0,0,0-1.35-.44h-1.83v3.23Z"/><path class="cls-3" d="M243.73,147.29l2.14,7.4,2.09-6.75h1.2l2.2,6.78,2.28-7.43h2L252.29,157h-1.86l-1.83-5.49L246.79,157h-1.86l-3.18-9.74Z"/><path class="cls-3" d="M259.58,147.29h1.77V157h-1.77Z"/><path class="cls-3" d="M265.09,147.29h7.8v1.53h-3V157H268.1v-8.21h-3Z"/><path class="cls-3" d="M278.39,147.29v4.07h4.25v-4.07h1.77V157h-1.77V152.9h-4.25V157h-1.77v-9.74Z"/><path class="cls-2" d="M52.17,143.5a36.16,36.16,0,0,0-4.81-.17H43.67L43.26,150a11.56,11.56,0,0,1,1.87-.77,7.8,7.8,0,0,1,2.2-.28,7.51,7.51,0,0,1,3.4.69,4.66,4.66,0,0,1,2.05,1.89,5.5,5.5,0,0,1,.68,2.77,7,7,0,0,1-1.68,4.59,11.3,11.3,0,0,1-4.35,3.14A14,14,0,0,1,42,163.17v-.63a9.19,9.19,0,0,0,4-.92A7.33,7.33,0,0,0,49,159a7.81,7.81,0,0,0,1.15-4.29A4.82,4.82,0,0,0,49,151.24,4.19,4.19,0,0,0,45.79,150a6.49,6.49,0,0,0-1.44.14,10.11,10.11,0,0,0-1.41.45l-.34-.22.66-10.33a10.25,10.25,0,0,0,1.87.14h3.93a4.73,4.73,0,0,0,1.4-.16,1.07,1.07,0,0,0,.64-.52,3.76,3.76,0,0,0,.28-1.08H52C52,140.78,52.08,142.47,52.17,143.5Z"/></g></g></svg>