<svg xmlns="http://www.w3.org/2000/svg" viewBox="0 0 166.62 166.62"><defs><style>.cls-1{font-size:13.33px;font-family:Karla-Bold, Karla;font-weight:700;}.cls-1,.cls-2{fill:#231d73;}.cls-3{fill:#221f6e;}</style></defs><title>mark</title><g id="Layer_2" data-name="Layer 2"><g id="Layer_1-2" data-name="Layer 1"><text class="cls-1" transform="matrix(-0.9, -0.43, 0.43, -0.9, 62.84, 134.5)">T</text><text class="cls-1" transform="matrix(-0.77, -0.64, 0.64, -0.77, 51.44, 128.4)">O</text><text class="cls-1" transform="matrix(-0.58, -0.82, 0.82, -0.58, 40.55, 118.18)">P</text><text class="cls-1" transform="translate(33.4 106.55) rotate(-113.15)"> </text><text class="cls-1" transform="translate(30.1 97.83) rotate(-101.3)">5</text><text class="cls-1" transform="translate(28.26 84.29) rotate(-89.27)"> </text><text class="cls-1" transform="matrix(0.26, -0.96, 0.96, 0.26, 28.53, 75.01)">W</text><text class="cls-1" transform="matrix(0.5, -0.86, 0.86, 0.5, 34.72, 57.42)">I</text><text class="cls-1" transform="translate(40.03 48.99) rotate(-46.68)">N</text><text class="cls-1" transform="matrix(0.85, -0.52, 0.52, 0.85, 51.19, 38.45)">E</text><text class="cls-1" transform="translate(63.17 31.93) rotate(-17.01)">S</text><text class="cls-1" transform="translate(77.21 28.59) rotate(-4.65)"> </text><text class="cls-1" transform="translate(86.52 28.26) rotate(7.06)">T</text><text class="cls-1" transform="matrix(0.93, 0.37, -0.37, 0.93, 99.27, 30.46)">O</text><text class="cls-1" transform="translate(112.85 36.86) rotate(34.17)"> </text><text class="cls-1" transform="matrix(0.69, 0.72, -0.72, 0.69, 120.33, 42.41)">P</text><text class="cls-1" transform="translate(128.92 52.23) rotate(60.12)">A</text><text class="cls-1" transform="translate(135.23 64.97) rotate(72.74)">I</text><text class="cls-1" transform="translate(137.82 74.62) rotate(85.35)">R</text><text class="cls-1" transform="matrix(-0.14, 0.99, -0.99, -0.14, 138.06, 89.11)"> </text><text class="cls-1" transform="translate(136.65 98.28) rotate(112.37)">W</text><text class="cls-1" transform="translate(128.35 114.98) rotate(127.17)">I</text><text class="cls-1" transform="translate(121.97 122.64) rotate(139.15)">T</text><text class="cls-1" transform="matrix(-0.9, 0.44, -0.44, -0.9, 111.77, 130.65)">H</text><circle class="cls-2" cx="83.31" cy="142.29" r="2.42"/><path class="cls-3" d="M81.87,108.42c-2.5-3.26-3.65-4.61-3.65-10.75l.19-12.29h1.92l.39,13.44h1.34l.19-13.44h2.12l.19,13.44H86.1l.19-13.44h1.92l.19,12.29c0,6.14-1.15,7.48-3.65,10.75h0l.72,18.94H97.59c0-6.08,0-11.32,0-15.88,0-6.75-.13-12-.34-16.19-.5-10.87-1.75-14.78-4.74-20C87.58,66.76,85.77,38,85.77,38H80.85S79,66.76,74.14,75.32c-3,5.19-4.24,9.1-4.74,20-.21,4.2-.29,9.44-.34,16.19,0,4.56,0,9.8,0,15.88H81.15Z"/></g></g></svg>