<svg xmlns="http://www.w3.org/2000/svg" viewBox="0 0 18.94 23.1"><defs><style>.cls-1{fill:#50b587;}</style></defs><title>calories</title><g id="Layer_2" data-name="Layer 2"><g id="Layer_1-2" data-name="Layer 1"><path class="cls-1" d="M14.43,6.69l-.32-.21a11.49,11.49,0,0,1-2.19-1.64,3.35,3.35,0,0,1-1.16-3.12,4.94,4.94,0,0,1,.14-.5l0,0c0-.12.08-.25.12-.39a.63.63,0,0,0-.2-.66.62.62,0,0,0-.69-.06c-3.76,2-5.29,5.64-4.68,11.07l0,.35-.25-.25A5.27,5.27,0,0,1,4,7.54V7.46A.62.62,0,0,0,3.58,7a.7.7,0,0,0-.25,0,.64.64,0,0,0-.43.18l-.27.27-.29.29A9.33,9.33,0,0,0,0,14.77C.18,19,3.65,22.37,8.44,23a7.45,7.45,0,0,0,1.16.08,9.54,9.54,0,0,0,8.79-5.88C19.86,13.25,18.34,9.22,14.43,6.69Zm2.79,10.1a8.25,8.25,0,0,1-7.63,5.07,7.93,7.93,0,0,1-1-.06c-4.26-.58-7.21-3.43-7.36-7.08a8.39,8.39,0,0,1,1.42-5.5L2.83,9l.06.27c.46,2.08,1.68,3.52,3.27,3.86a.63.63,0,0,0,.75-.71,21.49,21.49,0,0,1-.34-3.56A8.33,8.33,0,0,1,9.25,2.18L9.46,2v.27A4.75,4.75,0,0,0,11,5.7a13.21,13.21,0,0,0,2.41,1.83l.31.2C17.15,9.93,18.48,13.4,17.22,16.79Z"/></g></g></svg>