<svg xmlns="http://www.w3.org/2000/svg" viewBox="0 0 48.28 77.44"><defs><style>.cls-1{fill:#fff;}</style></defs><title>dessert</title><g id="Layer_2" data-name="Layer 2"><g id="Header"><path class="cls-1" d="M28.75,55.53A24.17,24.17,0,0,0,48.28,31.84a1.14,1.14,0,0,0-1.14-1.14h-1.5l0-.54a8,8,0,0,0-.94-4.69,6.2,6.2,0,0,0-3.18-2.57l-.39-.15.08-.41a6,6,0,0,0-.37-3.73,4.66,4.66,0,0,0-2-2.08l-.4-.22.18-.41c.9-2.17,2.17-6.34.5-10C37.74,2.88,34.66.9,30,0a1.12,1.12,0,0,0-1.19.55,1.13,1.13,0,0,0,.13,1.31c.37.44,3.47,4.27,1.4,6.48a3.36,3.36,0,0,1-2.94.92C21.07,8.38,13,8.07,10.13,11.71c-.06.08-1.77,2.57-1.44,4.91l0,.29-.23.17A5.41,5.41,0,0,0,6.3,22l0,.36L6,22.49a5.78,5.78,0,0,0-2.48,2.15,7.54,7.54,0,0,0-.81,5.48l.1.58H1.14A1.14,1.14,0,0,0,0,31.84,24.18,24.18,0,0,0,19.53,55.53l.41.08v11.9h-.5a8.82,8.82,0,0,0-8.7,8.79,1.13,1.13,0,0,0,1.13,1.13H36.41a1.13,1.13,0,0,0,1.13-1.13,8.82,8.82,0,0,0-8.7-8.79h-.5V55.61ZM5.43,25.9a3.55,3.55,0,0,1,1.5-1.33,3.6,3.6,0,0,1,1-.34,1.14,1.14,0,0,0,.91-1.59c-.9-2,.32-3.5,1.76-4.21a1.13,1.13,0,0,0,.51-1.6c-.66-1.12.49-3.26.84-3.77,1.61-2.07,7.39-2.65,15.1-1.54A5.6,5.6,0,0,0,32,9.91c1.41-1.51,1.7-3.46.87-5.8L32.43,3l1.11.54a7.11,7.11,0,0,1,3.53,3.36c1.8,3.93-.88,9-1.2,9.54a1.17,1.17,0,0,0-.07,1,1.13,1.13,0,0,0,.79.65,3.1,3.1,0,0,1,2.25,1.51,4.84,4.84,0,0,1-.17,3.5,1.13,1.13,0,0,0,0,1,1.16,1.16,0,0,0,.81.59,4.53,4.53,0,0,1,3.3,2,5.78,5.78,0,0,1,.6,3.62l0,.44H5.16l-.09-.39A5.85,5.85,0,0,1,5.43,25.9ZM28.74,69.78A6.54,6.54,0,0,1,35,74.54l.18.64H13.07l.18-.64a6.55,6.55,0,0,1,6.29-4.76Zm-6.53-2.27V56h3.86V67.51Zm1.95-13.8A22,22,0,0,1,2.33,33.51l0-.54H46l0,.54A22,22,0,0,1,24.16,53.71Z"/></g></g></svg>