<svg xmlns="http://www.w3.org/2000/svg" viewBox="0 0 74.02 79.36"><defs><style>.cls-1{fill:#fff;}.cls-2{fill:none;stroke:#fff;stroke-linecap:round;stroke-linejoin:round;stroke-width:1.5px;}</style></defs><title>healthy</title><g id="Layer_2" data-name="Layer 2"><g id="Header"><path class="cls-1" d="M58.66,29.12a16,16,0,0,0-22.85,0l-4.13,4.2L27.52,29.1a15.93,15.93,0,0,0-22.82,0,16.66,16.66,0,0,0,0,23.2L31,79.07a1,1,0,0,0,1.41,0L58.66,52.32A16.64,16.64,0,0,0,58.66,29.12Zm-1.42,21.8L31.68,77,6.11,50.89a14.66,14.66,0,0,1,0-20.42,14,14,0,0,1,10-4.26,13.71,13.71,0,0,1,5.39,1.1,14.32,14.32,0,0,1,4.61,3.16l4.87,5a1,1,0,0,0,1.42,0l4.82-4.93a13.87,13.87,0,0,1,20,0A14.64,14.64,0,0,1,57.24,50.92Z"/><circle class="cls-2" cx="56.22" cy="9.85" r="9.1"/><circle class="cls-2" cx="68.69" cy="18.94" r="4.58"/></g></g></svg>