<svg xmlns="http://www.w3.org/2000/svg" viewBox="0 0 132.11 23.05"><defs><style>.cls-1{fill:#fff;}</style></defs><title>homemade</title><g id="Layer_2" data-name="Layer 2"><g id="Header"><path class="cls-1" d="M17.59,10V22.82H13.81V15H7.29v7.83H3.52V10L7.29,8v3.64h6.52V8Z"/><path class="cls-1" d="M26,23.05a7,7,0,0,1-2.75-.51,5.91,5.91,0,0,1-2-1.37,5.78,5.78,0,0,1-1.25-2,6.83,6.83,0,0,1,0-4.77,5.82,5.82,0,0,1,1.25-2,6.22,6.22,0,0,1,2-1.38A7,7,0,0,1,26,10.49a6.9,6.9,0,0,1,2.74.52,6.28,6.28,0,0,1,2,1.38,6,6,0,0,1,1.27,2,6.61,6.61,0,0,1,.44,2.38,6.88,6.88,0,0,1-.43,2.39,5.66,5.66,0,0,1-1.26,2,6,6,0,0,1-2,1.37A7.07,7.07,0,0,1,26,23.05Zm-2.69-6.27a3.32,3.32,0,0,0,.76,2.29,2.51,2.51,0,0,0,3.83,0,3,3,0,0,0,.57-1,3.78,3.78,0,0,0,.2-1.28,3.33,3.33,0,0,0-.76-2.29,2.54,2.54,0,0,0-3.83,0,3,3,0,0,0-.56,1A3.78,3.78,0,0,0,23.33,16.78Z"/><path class="cls-1" d="M53.44,22.82H49.75V16a2.78,2.78,0,0,0-.44-1.74,1.39,1.39,0,0,0-1.13-.54,1.91,1.91,0,0,0-.75.16,2.78,2.78,0,0,0-.7.45,4,4,0,0,0-.59.68,4.2,4.2,0,0,0-.42.85v6.94H42V16a2.78,2.78,0,0,0-.43-1.74,1.4,1.4,0,0,0-1.13-.54,2.21,2.21,0,0,0-1.44.59,3.39,3.39,0,0,0-1,1.55v6.94H34.32V10.72h3.31v2a4.37,4.37,0,0,1,1.81-1.68,5.89,5.89,0,0,1,2.66-.58,4.1,4.1,0,0,1,1.33.19,3.35,3.35,0,0,1,1,.5,2.92,2.92,0,0,1,.66.75,3.11,3.11,0,0,1,.37.91,4.82,4.82,0,0,1,1.82-1.74,5.4,5.4,0,0,1,2.58-.61,3.6,3.6,0,0,1,1.86.43A3,3,0,0,1,52.79,12a4.48,4.48,0,0,1,.52,1.49,10.72,10.72,0,0,1,.13,1.57Z"/><path class="cls-1" d="M61.64,23.05a7.11,7.11,0,0,1-2.73-.5,6.13,6.13,0,0,1-2-1.34,5.83,5.83,0,0,1-1.28-2,6.44,6.44,0,0,1-.44-2.34,7,7,0,0,1,.44-2.48A5.87,5.87,0,0,1,58.88,11a7.07,7.07,0,0,1,2.76-.51,6.94,6.94,0,0,1,2.74.51,6.06,6.06,0,0,1,2,1.37,5.83,5.83,0,0,1,1.25,2,6.6,6.6,0,0,1,.43,2.38q0,.32,0,.63a2.63,2.63,0,0,1-.07.54H59.06a2.51,2.51,0,0,0,.88,1.86,2.85,2.85,0,0,0,1.81.63A3.34,3.34,0,0,0,63.31,20a2,2,0,0,0,1-1.06l3.13.87a5.55,5.55,0,0,1-2.21,2.33A6.86,6.86,0,0,1,61.64,23.05Zm2.55-7.42a2.73,2.73,0,0,0-.83-1.82,2.67,2.67,0,0,0-3.55,0A2.78,2.78,0,0,0,59,15.63Z"/><path class="cls-1" d="M88.89,22.82H85.2V16a2.78,2.78,0,0,0-.43-1.74,1.4,1.4,0,0,0-1.13-.54,1.84,1.84,0,0,0-.75.16,2.46,2.46,0,0,0-.7.45,3.24,3.24,0,0,0-.59.68,3.77,3.77,0,0,0-.43.85v6.94H77.49V16a2.78,2.78,0,0,0-.44-1.74,1.39,1.39,0,0,0-1.13-.54,2.25,2.25,0,0,0-1.44.59,3.39,3.39,0,0,0-1,1.55v6.94H69.77V10.72h3.32v2a4.29,4.29,0,0,1,1.8-1.68,5.89,5.89,0,0,1,2.66-.58,4.1,4.1,0,0,1,1.33.19,3.23,3.23,0,0,1,1,.5,3,3,0,0,1,.67.75,3.42,3.42,0,0,1,.37.91,4.75,4.75,0,0,1,1.82-1.74,5.4,5.4,0,0,1,2.58-.61,3.59,3.59,0,0,1,1.85.43A3,3,0,0,1,88.24,12a4.07,4.07,0,0,1,.52,1.49,9.5,9.5,0,0,1,.13,1.57Z"/><path class="cls-1" d="M94.74,23.05a4.76,4.76,0,0,1-1.67-.29A3.76,3.76,0,0,1,91.75,22a3.85,3.85,0,0,1-.88-1.22,3.56,3.56,0,0,1-.32-1.53,3.48,3.48,0,0,1,.38-1.64A3.68,3.68,0,0,1,92,16.3a5.32,5.32,0,0,1,1.63-.83,6.92,6.92,0,0,1,2.1-.3,8,8,0,0,1,1.48.13,4.64,4.64,0,0,1,1.24.38v-.56c0-1.39-.81-2.09-2.42-2.09a5.45,5.45,0,0,0-1.89.33,9.16,9.16,0,0,0-1.89,1l-1.08-2.3a10.1,10.1,0,0,1,2.49-1.18,9.4,9.4,0,0,1,2.74-.39,6.3,6.3,0,0,1,4.24,1.29,4.71,4.71,0,0,1,1.5,3.78v3.11a1.23,1.23,0,0,0,.17.77.83.83,0,0,0,.61.27v3.11c-.32.07-.62.12-.88.15l-.71,0a2.58,2.58,0,0,1-1.57-.4,1.84,1.84,0,0,1-.67-1.14L99,20.91A5.55,5.55,0,0,1,97.1,22.5,5.35,5.35,0,0,1,94.74,23.05Zm1.08-2.65A3.36,3.36,0,0,0,97,20.19a2.83,2.83,0,0,0,.93-.55,1.16,1.16,0,0,0,.53-.88V17.61a6.17,6.17,0,0,0-1-.29,5.71,5.71,0,0,0-1.05-.1,2.84,2.84,0,0,0-1.67.46,1.42,1.42,0,0,0-.65,1.2,1.35,1.35,0,0,0,.5,1.09A1.92,1.92,0,0,0,95.82,20.4Z"/><path class="cls-1" d="M109.83,23.05a5.58,5.58,0,0,1-2.29-.47,5.42,5.42,0,0,1-1.81-1.33,6.31,6.31,0,0,1-1.19-2,7.17,7.17,0,0,1-.42-2.5,7.66,7.66,0,0,1,.39-2.47,6.19,6.19,0,0,1,1.1-2,5.2,5.2,0,0,1,1.7-1.32,4.69,4.69,0,0,1,2.15-.49,4.42,4.42,0,0,1,2.29.6,4.14,4.14,0,0,1,1.58,1.61V6H117V18.67a1.23,1.23,0,0,0,.17.77.83.83,0,0,0,.61.27v3.11c-.34.07-.63.12-.88.15l-.69,0a2.74,2.74,0,0,1-1.56-.4,1.56,1.56,0,0,1-.69-1.16l-.07-.63a4.1,4.1,0,0,1-1.74,1.69A5.23,5.23,0,0,1,109.83,23.05Zm1-3.11a2.66,2.66,0,0,0,1.46-.45,2.85,2.85,0,0,0,1.07-1.23V15.72a3.36,3.36,0,0,0-1.11-1.51,2.63,2.63,0,0,0-1.6-.58,2.26,2.26,0,0,0-1.1.26,2.91,2.91,0,0,0-.86.7,3.09,3.09,0,0,0-.57,1,3.76,3.76,0,0,0-.19,1.22,3.37,3.37,0,0,0,.22,1.24,2.87,2.87,0,0,0,.59,1,2.79,2.79,0,0,0,.93.65A3,3,0,0,0,110.82,19.94Z"/><path class="cls-1" d="M125.66,23.05a7.11,7.11,0,0,1-2.73-.5,6.13,6.13,0,0,1-2.05-1.34,5.68,5.68,0,0,1-1.28-2,6.23,6.23,0,0,1-.44-2.34,6.82,6.82,0,0,1,.44-2.48A5.79,5.79,0,0,1,122.9,11a7.07,7.07,0,0,1,2.76-.51,7,7,0,0,1,2.74.51,5.92,5.92,0,0,1,2,1.37,5.71,5.71,0,0,1,1.26,2,6.82,6.82,0,0,1,.43,2.38q0,.32,0,.63a3.57,3.57,0,0,1-.07.54h-8.93a2.51,2.51,0,0,0,.88,1.86,2.83,2.83,0,0,0,1.81.63,3.34,3.34,0,0,0,1.56-.39,2,2,0,0,0,1-1.06l3.13.87a5.61,5.61,0,0,1-2.21,2.33A6.86,6.86,0,0,1,125.66,23.05Zm2.55-7.42a2.73,2.73,0,0,0-.83-1.82,2.45,2.45,0,0,0-1.77-.67,2.49,2.49,0,0,0-1.79.68,2.82,2.82,0,0,0-.81,1.81Z"/><path class="cls-1" d="M20.13,7.42l-9.5-4.48-1,.47-8.5,4L0,5,10.06.27,10.63,0,21.27,5Z"/></g></g></svg>