<svg xmlns="http://www.w3.org/2000/svg" viewBox="0 0 10.29 34.83"><defs><style>.cls-1{fill:#50b587;}</style></defs><title>servings</title><g id="Layer_2" data-name="Layer 2"><g id="Layer_1-2" data-name="Layer 1"><path class="cls-1" d="M9.66,0A.63.63,0,0,0,9,.63v7.3a3.83,3.83,0,0,1-2.4,3.47l-.22.06a3.74,3.74,0,0,1-2.47,0,1,1,0,0,0-.23-.06h0A3.84,3.84,0,0,1,1.25,7.92V.63A.63.63,0,1,0,0,.63v7.3a5.08,5.08,0,0,0,2.81,4.46l.08,0L1.74,31.24a3.39,3.39,0,0,0,5.85,2.52,3.34,3.34,0,0,0,.91-2.51L7.4,12.43l.07,0a5.11,5.11,0,0,0,2.82-4.47V.63A.63.63,0,0,0,9.66,0Zm-3,32.9a2.1,2.1,0,0,1-3.08,0A2.14,2.14,0,0,1,3,31.32L4.19,12.84l.14,0a4.78,4.78,0,0,0,1.63,0l.14,0V13L7.25,31.32A2.06,2.06,0,0,1,6.68,32.9Z"/><path class="cls-1" d="M4.26,6.47A.63.63,0,0,1,3,6.47V.63a.63.63,0,1,1,1.25,0Z"/><path class="cls-1" d="M4.26.63V6.47A.63.63,0,0,1,3,6.47V.63a.63.63,0,1,1,1.25,0Z"/><path class="cls-1" d="M7.28,6.47a.63.63,0,0,1-.63.62A.63.63,0,0,1,6,6.47V.63A.63.63,0,0,1,6.65,0a.63.63,0,0,1,.63.63Z"/><path class="cls-1" d="M7.28.63V6.47a.63.63,0,0,1-.63.62A.63.63,0,0,1,6,6.47V.63A.63.63,0,0,1,6.65,0,.63.63,0,0,1,7.28.63Z"/></g></g></svg>