<svg xmlns="http://www.w3.org/2000/svg" viewBox="0 0 41.38 85.16"><defs><style>.cls-1{fill:#fff;}</style></defs><title>smoothies</title><g id="Layer_2" data-name="Layer 2"><g id="Header"><path class="cls-1" d="M41.33,9.19a.88.88,0,0,0-.44-.51.87.87,0,0,0-.67,0,.85.85,0,0,0-.5.45L34.23,20.34l-.54-.23-.52-.2-.74-.28.43-.65A10.14,10.14,0,0,0,32,7.49C27.88,2.28,19.44.12,19.08,0a.86.86,0,0,0-.95.39.87.87,0,0,0,.08,1c.89,1.06,3.26,4.46,2.45,6.14-.42.88-1.79,1.3-4.06,1.26-3.41-.13-6,.79-7.75,2.7a9.33,9.33,0,0,0-2,6.71l0,.39-.3.29a8.66,8.66,0,0,0-2.14,1.94A11.17,11.17,0,0,0,2.25,28v.63H.87a.88.88,0,0,0,0,1.75H2.39v.11L5.08,84.32a.88.88,0,0,0,.87.84H33.36a.88.88,0,0,0,.87-.84l.23-4a.65.65,0,0,0,.06-.29.76.76,0,0,0,0-.21l0-.09v0l2.46-49.39h1.52a.88.88,0,0,0,0-1.75H37.5l.24-.8a6.61,6.61,0,0,0,0-4.24,5,5,0,0,0-1.56-2.13l-.39-.31L41.3,9.86A.87.87,0,0,0,41.33,9.19Zm-8.8,74.22H6.78l-.12-2.48h26Zm2.64-52.93-2.43,48.7H6.57v-.12L4.15,30.35h31Zm.95-6.32a3.72,3.72,0,0,1,.23,1.35,7.33,7.33,0,0,1-.61,2.7l-.17.39H4V28a9.65,9.65,0,0,1,1.81-6c1.4-1.75,3.59-2.73,6.52-2.93a.87.87,0,0,0,.83-.92,1,1,0,0,0-.95-.83,15.88,15.88,0,0,0-2.88.48L8.52,18l0-.83a7,7,0,0,1,1.63-4.43c1.28-1.41,3.32-2.12,6-2.12h.34c3,.06,4.94-.69,5.69-2.25.54-1.14.42-2.62-.37-4.39l-.65-1.44,1.46.6c2.49,1,5.9,2.85,8,5.46,2.35,2.95,2.45,7.49.22,10.12l-.19.22h-.85a23,23,0,0,0-2.52-.48.88.88,0,0,0-.8,1.41.88.88,0,0,0,.58.33,22.17,22.17,0,0,1,2.4.46l.12,0a25.61,25.61,0,0,1,3.47,1.12,7.09,7.09,0,0,1,.77.27l.16.1a.66.66,0,0,0,.21.15l.18.07h0l.16.07A3.38,3.38,0,0,1,36.12,24.16Z"/></g></g></svg>