<svg xmlns="http://www.w3.org/2000/svg" viewBox="0 0 63.33 63.27"><defs><style>.cls-1{fill:#fff;}</style></defs><title>tea</title><g id="Layer_2" data-name="Layer 2"><g id="Header"><path class="cls-1" d="M1.58,59.94a1.61,1.61,0,0,1,1.61-1.61h47.4a1.62,1.62,0,0,1,1.62,1.61v.14a1.62,1.62,0,0,1-1.62,1.61H3.19a1.62,1.62,0,0,1-1.61-1.61ZM1.58,26V21.28H30.85v5.29l-3.76,2a.8.8,0,0,0-.42.7V37.9a.79.79,0,0,0,.79.79h8.36a.79.79,0,0,0,.79-.79V29.27a.8.8,0,0,0-.42-.7l-3.76-2V21.28H52.21V26c0,14-7.37,26.61-17.94,30.72H19.52C9,52.63,1.58,40,1.58,26Zm30.06,1.92L35,29.74v7.37H28.26V29.74Zm23.93,2.31a6.19,6.19,0,0,1,0,12.37H50.33a39.71,39.71,0,0,0,3.25-12.37Zm-52.38,33h47.4a3.2,3.2,0,0,0,3.2-3.2v-.13a3.21,3.21,0,0,0-3.2-3.2H38A29.63,29.63,0,0,0,49.57,44.21h6a7.77,7.77,0,0,0,0-15.54H53.7c.06-.88.09-1.76.09-2.65V20.48a.8.8,0,0,0-.79-.79H.79a.8.8,0,0,0-.79.79V26C0,39.48,6.24,51.34,15.83,56.74H3.19A3.2,3.2,0,0,0,0,59.94v.13a3.19,3.19,0,0,0,3.19,3.2Z"/><path class="cls-1" d="M31.67,7.4a3.7,3.7,0,0,0,0-7.4.79.79,0,1,0,0,1.58,2.12,2.12,0,0,1,0,4.24,3.7,3.7,0,0,0,0,7.4.79.79,0,1,0,0-1.58,2.12,2.12,0,0,1,0-4.24Z"/><path class="cls-1" d="M31.67,7.4a3.7,3.7,0,0,0,0-7.4.79.79,0,1,0,0,1.58,2.12,2.12,0,0,1,0,4.24,3.7,3.7,0,0,0,0,7.4.79.79,0,1,0,0-1.58,2.12,2.12,0,0,1,0-4.24Z"/></g></g></svg>