<svg xmlns="http://www.w3.org/2000/svg" viewBox="0 0 23.49 23.48"><defs><style>.cls-1{fill:#50b587;}</style></defs><title>time</title><g id="Layer_2" data-name="Layer 2"><g id="Layer_1-2" data-name="Layer 1"><path class="cls-1" d="M11.74,0A11.74,11.74,0,1,0,23.49,11.74,11.76,11.76,0,0,0,11.74,0Zm0,21.94A10.2,10.2,0,1,1,22,11.74,10.21,10.21,0,0,1,11.74,21.94Z"/><path class="cls-1" d="M16.3,14.08a.76.76,0,0,1-1.13.67l-4-2.16-.47-.8V5.24a.77.77,0,0,1,1.54,0v6.17l3.65,2A.76.76,0,0,1,16.3,14.08Z"/></g></g></svg>