<svg xmlns="http://www.w3.org/2000/svg" viewBox="0 0 196.66 19.07"><defs><style>.cls-1{fill:#fff;}</style></defs><title>guide-to-the-solar-system</title><g id="Layer_2" data-name="Layer 2"><g id="Header"><path class="cls-1" d="M3.81,10.66V9H7.92v9.66H6.64L6.27,17a2.84,2.84,0,0,1-2.82,2.11A2.93,2.93,0,0,1,.9,17.8C.3,17,0,15.43,0,13.22V6C0,3.7.35,2.13,1.05,1.28A3.43,3.43,0,0,1,3.85,0,3.69,3.69,0,0,1,6.54.91,5.21,5.21,0,0,1,7.68,4.18l-1.91.47a5.42,5.42,0,0,0-.58-2.31A1.44,1.44,0,0,0,3.91,1.7a1.51,1.51,0,0,0-1.35.82,6.4,6.4,0,0,0-.5,3v8.07a6.28,6.28,0,0,0,.49,2.95,1.51,1.51,0,0,0,1.37.81c1.32,0,2-1.17,2-3.52V10.66Z"/><path class="cls-1" d="M16.88.39h2.06V13.22c0,2.21-.35,3.74-1.06,4.58a3.66,3.66,0,0,1-3,1.27,3.67,3.67,0,0,1-3-1.27c-.71-.84-1.06-2.37-1.06-4.58V.39h2.07V13.61a5.88,5.88,0,0,0,.52,2.94,1.63,1.63,0,0,0,1.45.82,1.65,1.65,0,0,0,1.46-.82,5.73,5.73,0,0,0,.54-2.94Z"/><path class="cls-1" d="M22.05,18.68V.39h2.09V18.68Z"/><path class="cls-1" d="M27.43,18.68V.39H31A3.76,3.76,0,0,1,34,1.66c.72.84,1.07,2.37,1.07,4.58v6.59c0,2.21-.35,3.74-1.07,4.58A3.76,3.76,0,0,1,31,18.68Zm5.62-5.38V5.8c0-2.49-.69-3.74-2.07-3.74H29.52V17H31C32.36,17,33.05,15.79,33.05,13.3Z"/><path class="cls-1" d="M40.13,10.4V17h4.54v1.67H38V.39H44.6V2.06H40.13V8.73H44.2V10.4Z"/><path class="cls-1" d="M49.73,5.12v-1h4.16v1H52.41V14.8h-1.2V5.12Z"/><path class="cls-1" d="M59.6,7.33v4.29A4.29,4.29,0,0,1,59,14.29a2.18,2.18,0,0,1-1.77.74,2.15,2.15,0,0,1-1.77-.74,4.28,4.28,0,0,1-.62-2.67V7.33a4.31,4.31,0,0,1,.62-2.68,2.18,2.18,0,0,1,1.77-.74A2.21,2.21,0,0,1,59,4.65,4.32,4.32,0,0,1,59.6,7.33Zm-1.2,4.52V7.1c0-1.47-.39-2.2-1.17-2.2a1,1,0,0,0-.88.48A3.3,3.3,0,0,0,56,7.1v4.75a3.33,3.33,0,0,0,.31,1.72,1,1,0,0,0,.88.47Q58.4,14,58.4,11.85Z"/><path class="cls-1" d="M62.74,5.12v-1H66.9v1H65.42V14.8h-1.2V5.12Z"/><path class="cls-1" d="M71.57,14.8V10h-2.3V14.8H68.06V4.14h1.21V9h2.3V4.14h1.21V14.8Z"/><path class="cls-1" d="M75.91,10v3.85h2.65v1H74.7V4.14h3.82v1H75.91V9h2.38v1Z"/><path class="cls-1" d="M90.23,14.58a3.87,3.87,0,0,0-1.41-3.22L86.73,9.82a5.65,5.65,0,0,1-2.35-4.93c0-1.82.34-3.08,1-3.81A4.27,4.27,0,0,1,91,1a5.86,5.86,0,0,1,1.2,3.64l-2,.44c-.07-2.22-.72-3.34-2-3.34s-1.84,1-1.84,2.85a6.46,6.46,0,0,0,.27,2,3.26,3.26,0,0,0,1.06,1.41l2.07,1.54a8.45,8.45,0,0,1,1.17,1,4.71,4.71,0,0,1,.85,1.5,6.72,6.72,0,0,1,.41,2.45,4.7,4.7,0,0,1-1.09,3.52,4.11,4.11,0,0,1-2.94,1,3.66,3.66,0,0,1-2.9-1.2,7.62,7.62,0,0,1-1.28-4.28l2-.34a7.65,7.65,0,0,0,.64,3.16,1.67,1.67,0,0,0,1.5.94C89.54,17.35,90.23,16.43,90.23,14.58Z"/><path class="cls-1" d="M102.82,5.85v7.37c0,2.21-.35,3.74-1.06,4.58a4.25,4.25,0,0,1-6.06,0c-.7-.84-1.06-2.37-1.06-4.58V5.85c0-2.21.36-3.74,1.06-4.58a4.25,4.25,0,0,1,6.06,0C102.47,2.11,102.82,3.64,102.82,5.85Zm-2.06,7.76V5.46c0-2.51-.67-3.76-2-3.76a1.71,1.71,0,0,0-1.51.81,5.82,5.82,0,0,0-.53,3v8.15a5.82,5.82,0,0,0,.53,2.95,1.71,1.71,0,0,0,1.51.81C100.09,17.37,100.76,16.12,100.76,13.61Z"/><path class="cls-1" d="M105.75,18.68V.39h2.09V17h4v1.67Z"/><path class="cls-1" d="M120.06,18.68l-.81-4.75h-3.68l-.78,4.75H112.7L116,.39h2.77l3.34,18.29ZM117.43,3l-1.57,9.22H119Z"/><path class="cls-1" d="M124.22,18.68V.39h3.24a3.76,3.76,0,0,1,3,1.23c.72.82,1.07,2.29,1.07,4.42v.13q0,4-1.93,5l2.17,7.47h-2.14l-2-7h-1.28v7Zm5.25-12.25V5.64a5.19,5.19,0,0,0-.54-2.79,1.69,1.69,0,0,0-1.47-.79h-1.15v8h1.15Q129.47,10,129.47,6.43Z"/><path class="cls-1" d="M143.68,14.58a3.87,3.87,0,0,0-1.41-3.22l-2.09-1.54a5.65,5.65,0,0,1-2.35-4.93c0-1.82.34-3.08,1-3.81A4.29,4.29,0,0,1,144.47,1a5.86,5.86,0,0,1,1.2,3.64l-2,.44c-.07-2.22-.72-3.34-1.94-3.34s-1.85,1-1.85,2.85a6.15,6.15,0,0,0,.28,2,3.11,3.11,0,0,0,1.06,1.41l2.06,1.54a8.6,8.6,0,0,1,1.18,1,4.92,4.92,0,0,1,.84,1.5,6.72,6.72,0,0,1,.41,2.45,4.71,4.71,0,0,1-1.08,3.52,4.14,4.14,0,0,1-2.94,1,3.63,3.63,0,0,1-2.9-1.2,7.46,7.46,0,0,1-1.28-4.28l2-.34a7.34,7.34,0,0,0,.64,3.16,1.65,1.65,0,0,0,1.5.94C143,17.35,143.68,16.43,143.68,14.58Z"/><path class="cls-1" d="M152.72,18.68h-2V12.57L147.23.39h2l2.43,9.43L154.11.39h2l-3.42,12.18Z"/><path class="cls-1" d="M163.85,14.58a3.87,3.87,0,0,0-1.41-3.22l-2.09-1.54A5.65,5.65,0,0,1,158,4.89c0-1.82.34-3.08,1-3.81a4.27,4.27,0,0,1,5.6-.07,5.79,5.79,0,0,1,1.21,3.64l-2,.44c-.07-2.22-.72-3.34-1.95-3.34s-1.84,1-1.84,2.85a6.15,6.15,0,0,0,.28,2,3.15,3.15,0,0,0,1,1.41l2.07,1.54a7.9,7.9,0,0,1,1.17,1,4.71,4.71,0,0,1,.85,1.5,6.72,6.72,0,0,1,.41,2.45,4.66,4.66,0,0,1-1.09,3.52,4.11,4.11,0,0,1-2.94,1,3.66,3.66,0,0,1-2.9-1.2,7.62,7.62,0,0,1-1.28-4.28l2-.34a7.65,7.65,0,0,0,.64,3.16,1.68,1.68,0,0,0,1.51.94C163.16,17.35,163.85,16.43,163.85,14.58Z"/><path class="cls-1" d="M167.32,2.06V.39h7.14V2.06h-2.54V18.68h-2.06V2.06Z"/><path class="cls-1" d="M178.53,10.4V17h4.55v1.67h-6.64V.39H183V2.06h-4.47V8.73h4.08V10.4Z"/><path class="cls-1" d="M187.86,18.68h-2V.39H189l2.22,12.67L193.48.39h3.18V18.68h-2V2.17l-2.22,12.59h-2.33L187.86,2.17Z"/><rect class="cls-1" x="49.35" y="0.39" width="29.22" height="1.31"/><rect class="cls-1" x="49.35" y="17.6" width="29.22" height="1.31"/></g></g></svg>