<svg xmlns="http://www.w3.org/2000/svg" viewBox="0 0 44.18 27.11"><defs><style>.cls-1{fill:none;stroke:#d5653a;stroke-miterlimit:10;}.cls-2{fill:#d5653a;}</style></defs><title>icon-2</title><g id="Layer_2" data-name="Layer 2"><g id="Layer_1-2" data-name="Layer 1"><path class="cls-1" d="M0,11.47H2.67a2.54,2.54,0,0,1,2.46,1.92l.51,2a2.53,2.53,0,0,0,4.9.06l3-10.8a2.53,2.53,0,0,1,4.94.22L20.8,18a2.53,2.53,0,0,0,4.95.17l1-3.84a2.53,2.53,0,0,1,5,.24h0a2.54,2.54,0,0,0,4.83.65l.88-2a2.53,2.53,0,0,1,2.32-1.5h4.46"/><circle class="cls-1" cx="31.56" cy="4.26" r="3.76"/><circle class="cls-2" cx="16.66" cy="25.22" r="1.89"/><circle class="cls-2" cx="5.67" cy="4.26" r="2.04"/></g></g></svg>