<svg xmlns="http://www.w3.org/2000/svg" viewBox="0 0 37.9 37.9"><defs><style>.cls-1{fill:none;stroke:#d5653a;stroke-miterlimit:10;}.cls-2{fill:#d5653a;}</style></defs><title>icon-3</title><g id="Layer_2" data-name="Layer 2"><g id="Layer_1-2" data-name="Layer 1"><path class="cls-1" d="M.5,19A18.45,18.45,0,0,1,19,.5"/><path class="cls-1" d="M37.4,19A18.45,18.45,0,0,1,19,37.4"/><path class="cls-1" d="M19,5.4A13.55,13.55,0,0,1,32.5,19"/><path class="cls-1" d="M19,32.5A13.55,13.55,0,0,1,5.4,19"/><path class="cls-1" d="M10.57,19A8.38,8.38,0,0,1,19,10.57"/><path class="cls-1" d="M27.33,19A8.38,8.38,0,0,1,19,27.33"/><path class="cls-2" d="M24.74,18.94a5.82,5.82,0,0,0-5.8,5.8,5.8,5.8,0,0,0-5.78-5.8,5.78,5.78,0,0,0,5.78-5.78A5.8,5.8,0,0,0,24.74,18.94Z"/></g></g></svg>