<svg xmlns="http://www.w3.org/2000/svg" viewBox="0 0 208.11 68.62"><defs><style>.cls-1{fill:#fff;}</style></defs><title>mars</title><g id="Layer_2" data-name="Layer 2"><g id="Layer_1-2" data-name="Layer 1"><path class="cls-1" d="M7.33,67.21H0V1.41H11.47l8,45.59L27.54,1.41H39v65.8H31.68V7.8l-8,45.31H15.32L7.33,7.8Z"/><path class="cls-1" d="M91.74,67.21,88.83,50.1H75.58L72.75,67.21H65.23l12-65.8h10l12,65.8ZM82.25,10.9,76.61,44.09H87.79Z"/><path class="cls-1" d="M125.49,67.21V1.41h11.65q7,0,10.81,4.42t3.86,15.88v.47q0,14.3-7,18.15l7.8,26.88H145L137.61,42H133V67.21Zm18.89-44.09V20.3q0-7.23-1.92-10a6.11,6.11,0,0,0-5.32-2.82H133V36.1h4.13Q144.39,36.1,144.38,23.12Z"/><path class="cls-1" d="M200.78,52.45q0-7.52-5.07-11.56l-7.53-5.55q-8.46-6-8.46-17.76,0-9.78,3.72-13.68T193.59,0q6.43,0,10,3.62t4.32,13.11l-7.14,1.6q-.37-12-7-12t-6.63,10.24a22.62,22.62,0,0,0,1,7.34,11.31,11.31,0,0,0,3.8,5.07l7.43,5.55a29.31,29.31,0,0,1,4.23,3.57,17.15,17.15,0,0,1,3.06,5.41,24,24,0,0,1,1.45,8.78q0,9-3.9,12.69t-10.57,3.67q-6.67,0-10.44-4.32t-4.6-15.42l7.05-1.22q.38,8,2.3,11.37a6,6,0,0,0,5.4,3.39Q200.78,62.42,200.78,52.45Z"/></g></g></svg>