<?xml version="1.0" encoding="UTF-8"?>
<svg width="74px" height="16px" viewBox="0 0 74 16" version="1.1" xmlns="http://www.w3.org/2000/svg" xmlns:xlink="http://www.w3.org/1999/xlink">
    <!-- Generator: Sketch 52.5 (67469) - http://www.bohemiancoding.com/sketch -->
    <title>logo</title>
    <desc>Created with Sketch.</desc>
    <defs>
        <polygon id="path-1" points="0 16.1408738 74.8617061 16.1408738 74.8617061 -7.7305257e-05 0 -7.7305257e-05"></polygon>
    </defs>
    <g id="Discounts" stroke="none" stroke-width="1" fill="none" fill-rule="evenodd">
        <g id="Discount---Landing-1" transform="translate(-60.000000, -729.000000)">
            <g id="coupon_1" transform="translate(31.000000, 716.000000)">
                <g id="logo" transform="translate(65.500000, 20.500000) rotate(-360.000000) translate(-65.500000, -20.500000) translate(28.000000, 12.000000)">
                    <path d="M39.8477632,14.7880318 C39.8598592,14.8510356 39.8697952,14.915199 39.8697952,14.981295 C39.8697952,15.047391 39.8598592,15.1115543 39.8477632,15.1745581 L74.4297925,15.1745581 L74.4297925,14.7880318 L39.8477632,14.7880318 Z" id="Fill-1" fill="#111111"></path>
                    <path d="M34.7076548,15.1745581 C34.6955588,15.1115543 34.6856228,15.047391 34.6856228,14.981295 C34.6856228,14.915199 34.6955588,14.8510356 34.7076548,14.7880318 L1.85362545,14.7880318 L1.85362545,15.1745581 L34.7076548,15.1745581 Z" id="Fill-3" fill="#111111"></path>
                    <mask id="mask-2" fill="white">
                        <use xlink:href="#path-1"></use>
                    </mask>
                    <g id="Clip-5"></g>
                    <path d="M2.4662878,2.8875434 L2.4662878,7.15008706 L7.78377538,7.15008706 L7.78377538,7.80586301 L2.4662878,7.80586301 L2.4662878,12.2109667 L1.73923186,12.2109667 L1.73923186,2.23176745 L8.41103933,2.23176745 L8.41103933,2.8875434 L2.4662878,2.8875434 Z M12.873167,12.2679907 C12.1698675,12.2679907 11.5354819,12.1064243 10.9699912,11.7832867 C10.4045004,11.4601491 9.96019285,11.0110896 9.63705526,10.4360948 C9.31391767,9.86109997 9.1523513,9.21245851 9.1523513,8.49015095 C9.1523513,7.7678434 9.31391767,7.11920194 9.63705526,6.54420711 C9.96019285,5.96921228 10.4045004,5.52015281 10.9699912,5.19701522 C11.5354819,4.87387763 12.1698675,4.71231125 12.873167,4.71231125 C13.5764665,4.71231125 14.2108521,4.87387763 14.7763429,5.19701522 C15.3418336,5.52015281 15.7861412,5.96921228 16.1092787,6.54420711 C16.4324163,7.11920194 16.5939827,7.7678434 16.5939827,8.49015095 C16.5939827,9.21245851 16.4324163,9.86109997 16.1092787,10.4360948 C15.7861412,11.0110896 15.3418336,11.4601491 14.7763429,11.7832867 C14.2108521,12.1064243 13.5764665,12.2679907 12.873167,12.2679907 Z M12.873167,11.6264707 C13.4434098,11.6264707 13.9542447,11.493416 14.4056869,11.2273027 C14.8571291,10.9611894 15.2135255,10.5905372 15.4748868,10.1153348 C15.7362481,9.64013249 15.8669268,9.09840995 15.8669268,8.49015095 C15.8669268,7.88189196 15.7362481,7.34016942 15.4748868,6.86496708 C15.2135255,6.38976474 14.8571291,6.01911248 14.4056869,5.75299917 C13.9542447,5.48688586 13.4434098,5.3538312 12.873167,5.3538312 C12.3029242,5.3538312 11.7920893,5.48688586 11.3406471,5.75299917 C10.8892049,6.01911248 10.5328085,6.38976474 10.2714472,6.86496708 C10.0100859,7.34016942 9.87940724,7.88189196 9.87940724,8.49015095 C9.87940724,9.09840995 10.0100859,9.64013249 10.2714472,10.1153348 C10.5328085,10.5905372 10.8892049,10.9611894 11.3406471,11.2273027 C11.7920893,11.493416 12.3029242,11.6264707 12.873167,11.6264707 Z M21.7118863,12.2679907 C21.0085868,12.2679907 20.3742012,12.1064243 19.8087105,11.7832867 C19.2432197,11.4601491 18.7989121,11.0110896 18.4757746,10.4360948 C18.152637,9.86109997 17.9910706,9.21245851 17.9910706,8.49015095 C17.9910706,7.7678434 18.152637,7.11920194 18.4757746,6.54420711 C18.7989121,5.96921228 19.2432197,5.52015281 19.8087105,5.19701522 C20.3742012,4.87387763 21.0085868,4.71231125 21.7118863,4.71231125 C22.4151858,4.71231125 23.0495714,4.87387763 23.6150621,5.19701522 C24.1805529,5.52015281 24.6248605,5.96921228 24.947998,6.54420711 C25.2711356,7.11920194 25.432702,7.7678434 25.432702,8.49015095 C25.432702,9.21245851 25.2711356,9.86109997 24.947998,10.4360948 C24.6248605,11.0110896 24.1805529,11.4601491 23.6150621,11.7832867 C23.0495714,12.1064243 22.4151858,12.2679907 21.7118863,12.2679907 Z M21.7118863,11.6264707 C22.2821291,11.6264707 22.792964,11.493416 23.2444062,11.2273027 C23.6958484,10.9611894 24.0522448,10.5905372 24.3136061,10.1153348 C24.5749674,9.64013249 24.7056461,9.09840995 24.7056461,8.49015095 C24.7056461,7.88189196 24.5749674,7.34016942 24.3136061,6.86496708 C24.0522448,6.38976474 23.6958484,6.01911248 23.2444062,5.75299917 C22.792964,5.48688586 22.2821291,5.3538312 21.7118863,5.3538312 C21.1416435,5.3538312 20.6308086,5.48688586 20.1793664,5.75299917 C19.7279242,6.01911248 19.3715278,6.38976474 19.1101665,6.86496708 C18.8488052,7.34016942 18.7181265,7.88189196 18.7181265,8.49015095 C18.7181265,9.09840995 18.8488052,9.64013249 19.1101665,10.1153348 C19.3715278,10.5905372 19.7279242,10.9611894 20.1793664,11.2273027 C20.6308086,11.493416 21.1416435,11.6264707 21.7118863,11.6264707 Z M34.2571653,1.6330155 L34.2571653,12.2109667 L33.5586214,12.2109667 L33.5586214,10.4574788 C33.2639959,11.0372257 32.8505761,11.4839091 32.3183495,11.7975427 C31.7861228,12.1111762 31.1826249,12.2679907 30.5078376,12.2679907 C29.8140422,12.2679907 29.1867845,12.1064243 28.6260458,11.7832867 C28.065307,11.4601491 27.6257514,11.0134656 27.3073659,10.4432228 C26.9889803,9.87297999 26.8297899,9.22196255 26.8297899,8.49015095 C26.8297899,7.75833935 26.9889803,7.10494594 27.3073659,6.52995111 C27.6257514,5.95495628 28.065307,5.50827278 28.6260458,5.18988722 C29.1867845,4.87150165 29.8140422,4.71231125 30.5078376,4.71231125 C31.1731209,4.71231125 31.7694909,4.86912567 32.2969655,5.18275922 C32.8244401,5.49639276 33.2402359,5.93357235 33.5443654,6.49431111 L33.5443654,1.6330155 L34.2571653,1.6330155 Z M30.5506056,11.6264707 C31.1208484,11.6264707 31.6316833,11.493416 32.0831255,11.2273027 C32.5345677,10.9611894 32.8909641,10.5905372 33.1523254,10.1153348 C33.4136867,9.64013249 33.5443654,9.09840995 33.5443654,8.49015095 C33.5443654,7.88189196 33.4136867,7.34016942 33.1523254,6.86496708 C32.8909641,6.38976474 32.5345677,6.01911248 32.0831255,5.75299917 C31.6316833,5.48688586 31.1208484,5.3538312 30.5506056,5.3538312 C29.9803628,5.3538312 29.4695279,5.48688586 29.0180857,5.75299917 C28.5666435,6.01911248 28.2102471,6.38976474 27.9488858,6.86496708 C27.6875245,7.34016942 27.5568458,7.88189196 27.5568458,8.49015095 C27.5568458,9.09840995 27.6875245,9.64013249 27.9488858,10.1153348 C28.2102471,10.5905372 28.5666435,10.9611894 29.0180857,11.2273027 C29.4695279,11.493416 29.9803628,11.6264707 30.5506056,11.6264707 Z" id="Food" fill="#111111" mask="url(#mask-2)"></path>
                    <path d="M48.5987001,12.2109667 L48.5701881,7.66330302 L46.4032763,11.3128387 L44.9206524,11.3128387 L42.7537406,7.82011901 L42.7537406,12.2109667 L39.6887008,12.2109667 L39.6887008,2.23176745 L42.4543646,2.23176745 L45.7047324,7.54925503 L48.8695641,2.23176745 L51.6352279,2.23176745 L51.6637399,12.2109667 L48.5987001,12.2109667 Z M56.6818515,4.27037529 C58.0504342,4.27037529 59.0958637,4.5768762 59.8181712,5.18988722 C60.5404788,5.80289823 60.9016272,6.74616072 60.9016272,8.01970299 L60.9016272,12.2109667 L57.9078674,12.2109667 L57.9078674,11.1845347 C57.5372096,11.9638666 56.800657,12.3535266 55.6981876,12.3535266 C55.0804245,12.3535266 54.5553338,12.2466077 54.1228997,12.0327667 C53.6904656,11.8189256 53.3625809,11.5290565 53.1392358,11.1631507 C52.9158907,10.7972449 52.8042198,10.3862011 52.8042198,9.93000684 C52.8042198,9.16017905 53.0988408,8.57568894 53.6880917,8.17651898 C54.2773426,7.77734901 55.1707096,7.57776703 56.3682195,7.57776703 L57.6655154,7.57776703 C57.5609709,6.96950803 57.0715198,6.6653831 56.1971475,6.6653831 C55.8454978,6.6653831 55.4891014,6.72003055 55.1279476,6.82932709 C54.7667938,6.93862362 54.457917,7.08831011 54.2013077,7.27839105 L53.1748758,5.15424722 C53.621566,4.87862986 54.1609125,4.66241604 54.7929316,4.50559927 C55.4249508,4.3487825 56.0545844,4.27037529 56.6818515,4.27037529 Z M56.6675955,10.4147108 C56.8956926,10.4147108 57.1000266,10.3529354 57.2806034,10.2293828 C57.4611803,10.1058302 57.594235,9.92050408 57.6797714,9.67339886 L57.6797714,9.1316709 L56.8814355,9.1316709 C56.2256563,9.1316709 55.8977716,9.3502607 55.8977716,9.78744685 C55.8977716,9.96802374 55.9666749,10.1177102 56.1044835,10.2365108 C56.2422922,10.3553114 56.4299943,10.4147108 56.6675955,10.4147108 Z M65.3637548,5.25403921 C65.9339976,4.59825998 66.7750931,4.27037529 67.8870666,4.27037529 L67.8870666,7.12157506 C67.6304573,7.08355888 67.3928597,7.06455107 67.1742667,7.06455107 C66.0717972,7.06455107 65.5205708,7.62528142 65.5205708,8.74675893 L65.5205708,12.2109667 L62.298715,12.2109667 L62.298715,4.41293528 L65.3637548,4.41293528 L65.3637548,5.25403921 Z M74.9722981,11.9401027 C74.4875917,12.21572 73.8270703,12.3535266 72.9907142,12.3535266 C71.8977488,12.3535266 71.0566533,12.0897933 70.4674024,11.5623187 C69.8781515,11.0348441 69.5835305,10.2436441 69.5835305,9.1886949 L69.5835305,7.19285506 L68.5143306,7.19285506 L68.5143306,4.84061524 L69.5835305,4.84061524 L69.5835305,2.65944742 L72.8053862,2.65944742 L72.8053862,4.84061524 L74.4020581,4.84061524 L74.4020581,7.19285506 L72.8053862,7.19285506 L72.8053862,9.1601829 C72.8053862,9.39778407 72.8671616,9.5831102 72.9907142,9.71616686 C73.1142668,9.84922351 73.2758332,9.91575084 73.4754182,9.91575084 C73.7510355,9.91575084 73.9933851,9.84447156 74.2024741,9.70191086 L74.9722981,11.9401027 Z" id="Mart" fill="#F9933A" mask="url(#mask-2)"></path>
                    <path d="M35.9817091,14.981295 C35.9817091,14.3408209 36.5618851,13.8217161 37.277709,13.8217161 C37.993533,13.8217161 38.5737089,14.3408209 38.5737089,14.981295 C38.5737089,15.621769 37.993533,16.1408738 37.277709,16.1408738 C36.5618851,16.1408738 35.9817091,15.621769 35.9817091,14.981295" id="Fill-6" fill="#F9933A" mask="url(#mask-2)"></path>
                </g>
            </g>
        </g>
    </g>
</svg>