<?xml version="1.0" encoding="UTF-8"?>
<svg width="55px" height="34px" viewBox="0 0 55 34" version="1.1" xmlns="http://www.w3.org/2000/svg" xmlns:xlink="http://www.w3.org/1999/xlink">
    <g id="Discounts" stroke="none" stroke-width="1" fill="none" fill-rule="evenodd">
        <g id="Discount---Landing-1" transform="translate(-20.000000, -82.000000)">
            <g id="header" transform="translate(20.000000, 82.000000)">
                <g id="logo_small-2">
                    <g id="logo_small">
                        <g id="Group-5" transform="translate(1.815000, 16.570001) rotate(-270.000000) translate(-1.815000, -16.570001) translate(-14.520001, 15.360001)">
                            <path d="M18.1500008,1.21000005 C18.1550795,1.30861506 18.1592514,1.40904506 18.1592514,1.51250007 C18.1592514,1.61595507 18.1550795,1.71638507 18.1500008,1.81500008 L32.6700014,1.81500008 L32.6700014,1.21000005 L18.1500008,1.21000005 Z" id="Fill-1" fill="#111111"></path>
                            <path d="M14.5200006,1.81500008 C14.5146547,1.71638507 14.5102635,1.61595507 14.5102635,1.51250007 C14.5102635,1.40904506 14.5146547,1.30861506 14.5200006,1.21000005 L0,1.21000005 L0,1.81500008 L14.5200006,1.81500008 Z" id="Fill-3" fill="#111111"></path>
                            <path d="M15.7300007,1.57300007 C15.7300007,1.23883839 16.000839,0.968000042 16.3350007,0.968000042 C16.6691624,0.968000042 16.9400007,1.23883839 16.9400007,1.57300007 C16.9400007,1.90716175 16.6691624,2.17800009 16.3350007,2.17800009 C16.000839,2.17800009 15.7300007,1.90716175 15.7300007,1.57300007" id="Fill-6" fill="#F9933A"></path>
                        </g>
                        <path d="M8.15578773,2.46517317 L8.15578773,8.19592733 L15.3048556,8.19592733 L15.3048556,9.07758182 L8.15578773,9.07758182 L8.15578773,15 L7.17830124,15 L7.17830124,1.58351869 L16.1481773,1.58351869 L16.1481773,2.46517317 L8.15578773,2.46517317 Z M22.1472611,15.0766656 C21.2017139,15.0766656 20.3488176,14.8594486 19.5885465,14.4250079 C18.8282754,13.9905673 18.2309285,13.3868317 17.7964879,12.613783 C17.3620473,11.8407342 17.1448302,10.9686717 17.1448302,9.99756911 C17.1448302,9.02646656 17.3620473,8.15440399 17.7964879,7.38135525 C18.2309285,6.60830651 18.8282754,6.00457089 19.5885465,5.57013028 C20.3488176,5.13568966 21.2017139,4.91847261 22.1472611,4.91847261 C23.0928084,4.91847261 23.9457047,5.13568966 24.7059758,5.57013028 C25.4662469,6.00457089 26.0635937,6.60830651 26.4980344,7.38135525 C26.932475,8.15440399 27.149692,9.02646656 27.149692,9.99756911 C27.149692,10.9686717 26.932475,11.8407342 26.4980344,12.613783 C26.0635937,13.3868317 25.4662469,13.9905673 24.7059758,14.4250079 C23.9457047,14.8594486 23.0928084,15.0766656 22.1472611,15.0766656 Z M22.1472611,14.2141775 C22.913921,14.2141775 23.6007102,14.0352929 24.2076493,13.6775183 C24.8145884,13.3197436 25.2937437,12.8214222 25.6451295,12.1825389 C25.9965153,11.5436557 26.1722055,10.8153397 26.1722055,9.99756911 C26.1722055,9.17979854 25.9965153,8.45148255 25.6451295,7.8125993 C25.2937437,7.17371604 24.8145884,6.67539457 24.2076493,6.31761995 C23.6007102,5.95984533 22.913921,5.7809607 22.1472611,5.7809607 C21.3806012,5.7809607 20.693812,5.95984533 20.0868729,6.31761995 C19.4799338,6.67539457 19.0007786,7.17371604 18.6493928,7.8125993 C18.298007,8.45148255 18.1223167,9.17979854 18.1223167,9.99756911 C18.1223167,10.8153397 18.298007,11.5436557 18.6493928,12.1825389 C19.0007786,12.8214222 19.4799338,13.3197436 20.0868729,13.6775183 C20.693812,14.0352929 21.3806012,14.2141775 22.1472611,14.2141775 Z M34.0304303,15.0766656 C33.0848831,15.0766656 32.2319867,14.8594486 31.4717156,14.4250079 C30.7114446,13.9905673 30.1140977,13.3868317 29.6796571,12.613783 C29.2452165,11.8407342 29.0279994,10.9686717 29.0279994,9.99756911 C29.0279994,9.02646656 29.2452165,8.15440399 29.6796571,7.38135525 C30.1140977,6.60830651 30.7114446,6.00457089 31.4717156,5.57013028 C32.2319867,5.13568966 33.0848831,4.91847261 34.0304303,4.91847261 C34.9759775,4.91847261 35.8288739,5.13568966 36.5891449,5.57013028 C37.349416,6.00457089 37.9467629,6.60830651 38.3812035,7.38135525 C38.8156441,8.15440399 39.0328612,9.02646656 39.0328612,9.99756911 C39.0328612,10.9686717 38.8156441,11.8407342 38.3812035,12.613783 C37.9467629,13.3868317 37.349416,13.9905673 36.5891449,14.4250079 C35.8288739,14.8594486 34.9759775,15.0766656 34.0304303,15.0766656 Z M34.0304303,14.2141775 C34.7970902,14.2141775 35.4838794,14.0352929 36.0908185,13.6775183 C36.6977576,13.3197436 37.1769129,12.8214222 37.5282986,12.1825389 C37.8796844,11.5436557 38.0553747,10.8153397 38.0553747,9.99756911 C38.0553747,9.17979854 37.8796844,8.45148255 37.5282986,7.8125993 C37.1769129,7.17371604 36.6977576,6.67539457 36.0908185,6.31761995 C35.4838794,5.95984533 34.7970902,5.7809607 34.0304303,5.7809607 C33.2637704,5.7809607 32.5769812,5.95984533 31.9700421,6.31761995 C31.363103,6.67539457 30.8839477,7.17371604 30.532562,7.8125993 C30.1811762,8.45148255 30.0054859,9.17979854 30.0054859,9.99756911 C30.0054859,10.8153397 30.1811762,11.5436557 30.532562,12.1825389 C30.8839477,12.8214222 31.363103,13.3197436 31.9700421,13.6775183 C32.5769812,14.0352929 33.2637704,14.2141775 34.0304303,14.2141775 Z M50.896864,0.778529806 L50.896864,15 L49.9577103,15 L49.9577103,12.6425326 C49.5616026,13.4219701 49.0057825,14.0225114 48.2902333,14.4441743 C47.574684,14.8658373 46.7633145,15.0766656 45.8561003,15.0766656 C44.9233307,15.0766656 44.0800175,14.8594486 43.3261352,14.4250079 C42.572253,13.9905673 41.9812948,13.3900261 41.553243,12.6233662 C41.1251913,11.8567063 40.9111686,10.9814493 40.9111686,9.99756911 C40.9111686,9.01368889 41.1251913,8.13523759 41.553243,7.36218885 C41.9812948,6.58914011 42.572253,5.98859886 43.3261352,5.56054708 C44.0800175,5.13249529 44.9233307,4.91847261 45.8561003,4.91847261 C46.7505368,4.91847261 47.5523233,5.12930092 48.2614837,5.55096387 C48.9706441,5.97262682 49.5296586,6.5603906 49.9385439,7.31427285 L49.9385439,0.778529806 L50.896864,0.778529806 Z M45.9135995,14.2141775 C46.6802594,14.2141775 47.3670486,14.0352929 47.9739877,13.6775183 C48.5809268,13.3197436 49.060082,12.8214222 49.4114678,12.1825389 C49.7628536,11.5436557 49.9385439,10.8153397 49.9385439,9.99756911 C49.9385439,9.17979854 49.7628536,8.45148255 49.4114678,7.8125993 C49.060082,7.17371604 48.5809268,6.67539457 47.9739877,6.31761995 C47.3670486,5.95984533 46.6802594,5.7809607 45.9135995,5.7809607 C45.1469396,5.7809607 44.4601504,5.95984533 43.8532113,6.31761995 C43.2462722,6.67539457 42.7671169,7.17371604 42.4157311,7.8125993 C42.0643453,8.45148255 41.8886551,9.17979854 41.8886551,9.99756911 C41.8886551,10.8153397 42.0643453,11.5436557 42.4157311,12.1825389 C42.7671169,12.8214222 43.2462722,13.3197436 43.8532113,13.6775183 C44.4601504,14.0352929 45.1469396,14.2141775 45.9135995,14.2141775 Z" id="Food" fill="#111111"></path>
                        <path d="M19.1214863,33.1500008 L19.0831535,27.0359186 L16.1698605,31.9425175 L14.1765547,31.9425175 L11.2632616,27.246749 L11.2632616,33.1500008 L7.14248517,33.1500008 L7.14248517,19.7335195 L10.8607671,19.7335195 L15.2307068,26.8825874 L19.485648,19.7335195 L23.2039299,19.7335195 L23.2422627,33.1500008 L19.1214863,33.1500008 Z M29.9888362,22.4743149 C31.82882,22.4743149 33.2343421,22.8863885 34.2054446,23.7105479 C35.1765472,24.5347073 35.6620912,25.8028715 35.6620912,27.5150786 L35.6620912,33.1500008 L31.6371468,33.1500008 L31.6371468,31.7700199 C31.1388178,32.8177884 30.1485636,33.3416648 28.6663545,33.3416648 C27.8358062,33.3416648 27.1298508,33.1979182 26.5484671,32.9104208 C25.9670833,32.6229233 25.5262605,32.2332104 25.2259853,31.7412702 C24.9257102,31.2493301 24.7755749,30.6967044 24.7755749,30.0833765 C24.7755749,29.0483856 25.1716766,28.262571 25.9638918,27.7259091 C26.7561071,27.1892471 27.9571896,26.9209202 29.5671754,26.9209202 L31.3113179,26.9209202 C31.1707636,26.1031496 30.5127237,25.6942705 29.3371785,25.6942705 C28.8644049,25.6942705 28.3852497,25.7677409 27.8996984,25.9146841 C27.4141471,26.0616272 26.9988792,26.2628724 26.6538823,26.5184257 L25.2739013,23.6626319 C25.8744516,23.2920796 26.5995732,23.001392 27.449288,22.7905606 C28.2990027,22.5797291 29.1455103,22.4743149 29.9888362,22.4743149 Z M29.9696698,30.7350342 C30.2763338,30.7350342 30.5510494,30.6519806 30.7938251,30.4858709 C31.0366007,30.3197613 31.2154854,30.0706005 31.3304843,29.7383813 L31.3304843,29.010058 L30.2571658,29.010058 C29.3755069,29.010058 28.9346841,29.3039399 28.9346841,29.8917125 C28.9346841,30.1344881 29.0273208,30.3357333 29.2125969,30.4954541 C29.3978731,30.6551749 29.6502282,30.7350342 29.9696698,30.7350342 Z M41.661175,23.7967967 C42.4278349,22.9151378 43.5586413,22.4743149 45.0536281,22.4743149 L45.0536281,26.3075953 C44.7086311,26.2564847 44.3891943,26.2309297 44.095308,26.2309297 C42.6130988,26.2309297 41.8720054,26.9848006 41.8720054,28.4925651 L41.8720054,33.1500008 L37.5403985,33.1500008 L37.5403985,22.665979 L41.661175,22.665979 L41.661175,23.7967967 Z M54.5793298,32.7858392 C53.9276689,33.1563914 53.0396345,33.3416648 51.9152,33.3416648 C50.4457685,33.3416648 49.3149621,32.9870899 48.5227468,32.2779295 C47.7305316,31.5687691 47.3344299,30.5050444 47.3344299,29.0867236 L47.3344299,26.4034273 L45.8969498,26.4034273 L45.8969498,23.240971 L47.3344299,23.240971 L47.3344299,20.3085115 L51.6660367,20.3085115 L51.6660367,23.240971 L53.8126737,23.240971 L53.8126737,26.4034273 L51.6660367,26.4034273 L51.6660367,29.0483908 C51.6660367,29.3678324 51.7490903,29.6169931 51.9152,29.7958805 C52.0813096,29.9747678 52.2985267,30.0642101 52.5668576,30.0642101 C52.9374099,30.0642101 53.2632355,29.968379 53.5443441,29.7767141 L54.5793298,32.7858392 Z" id="Mart" fill="#F9933A"></path>
                    </g>
                </g>
            </g>
        </g>
    </g>
</svg>