<svg xmlns="http://www.w3.org/2000/svg" xmlns:xlink="http://www.w3.org/1999/xlink" viewBox="0 0 43.22 44.06"><defs><style>.cls-1{fill:none;}.cls-2{fill:#f0f0ed;}.cls-3{clip-path:url(#clip-path);}.cls-4{fill:#84a79a;}</style><clipPath id="clip-path"><circle class="cls-1" cx="21.61" cy="21.61" r="21.61"/></clipPath></defs><title>Asset 3</title><g id="Layer_2" data-name="Layer 2"><g id="Layer_1-2" data-name="Layer 1"><circle class="cls-2" cx="21.61" cy="21.61" r="21.61"/><g class="cls-3"><path class="cls-4" d="M6.24,44.06H37a1.66,1.66,0,0,0,1.67-1.66v-2a5.67,5.67,0,0,0-2.21-4.5,51.66,51.66,0,0,0-9-5.66.32.32,0,0,1-.18-.27V27.07a11,11,0,0,0,.86-2.7c.4.27,1,.14,1.75-2.38.59-2,.23-2.74-.27-2.88,1.62-7.78-2.07-8-2.07-8a4.91,4.91,0,0,0-2-1.89,6.9,6.9,0,0,0-4.18-.9,7,7,0,0,0-1.66.31,7.2,7.2,0,0,0-1.85.95A10.25,10.25,0,0,0,16,11.11a7.27,7.27,0,0,0-2,3.55,6.65,6.65,0,0,0,.17,4c-.67-.05-1.43.31-.71,2.92.54,1.93,1,2.43,1.43,2.47A9.8,9.8,0,0,0,16,27.43v2.51c0,.14,0,.23-.18.27a56.47,56.47,0,0,0-9,5.67,5.67,5.67,0,0,0-2.21,4.49v2A1.66,1.66,0,0,0,6.24,44.06Z"/></g></g></g></svg>